<svg width="387" height="367" viewBox="0 0 387 367" fill="none" xmlns="http://www.w3.org/2000/svg">
<g filter="url(#filter0_d_122_1822)">
<path d="M326.38 184C326.38 257.543 266.762 317.161 193.219 317.161C119.676 317.161 60.0582 257.543 60.0582 184C60.0582 110.457 119.676 50.8389 193.219 50.8389C266.762 50.8389 326.38 110.457 326.38 184ZM113.323 184C113.323 228.126 149.094 263.897 193.219 263.897C237.345 263.897 273.116 228.126 273.116 184C273.116 139.874 237.345 104.103 193.219 104.103C149.094 104.103 113.323 139.874 113.323 184Z" fill="#FFC1E2"/>
<path d="M193.219 50.8389C217.422 50.8389 241.167 57.4351 261.902 69.9185C282.637 82.4019 299.577 100.3 310.902 121.69C322.228 143.079 327.509 167.151 326.179 191.317C324.849 215.483 316.958 238.83 303.354 258.848C289.75 278.865 270.948 294.797 248.968 304.929C226.989 315.062 202.663 319.013 178.607 316.357C154.55 313.701 131.673 304.539 112.433 289.856C93.1931 275.172 78.3189 255.523 69.4093 233.02L118.933 213.412C124.279 226.914 133.204 238.703 144.747 247.513C156.291 256.323 170.018 261.821 184.452 263.414C198.886 265.008 213.481 262.637 226.669 256.558C239.856 250.478 251.138 240.919 259.3 228.908C267.463 216.898 272.197 202.89 272.995 188.39C273.793 173.891 270.624 159.448 263.829 146.614C257.034 133.78 246.87 123.041 234.429 115.551C221.988 108.061 207.741 104.103 193.219 104.103V50.8389Z" fill="#FF8CC8"/>
<path d="M193.219 50.8389C227.088 50.8389 259.685 63.7447 284.374 86.9297C309.064 110.115 323.991 141.836 326.118 175.639C328.244 209.441 317.411 242.783 295.822 268.88C274.233 294.977 243.511 311.866 209.909 316.111L203.233 263.267C223.394 260.72 241.827 250.586 254.781 234.928C267.734 219.27 274.234 199.265 272.958 178.983C271.682 158.702 262.726 139.669 247.912 125.758C233.099 111.847 213.541 104.103 193.219 104.103V50.8389Z" fill="#FF70BB"/>
<path d="M193.219 50.8389C217.067 50.8389 240.477 57.2431 261.004 69.3826C281.53 81.5221 298.42 98.9512 309.909 119.849C321.398 140.747 327.064 164.347 326.315 188.183C325.566 212.019 318.429 235.216 305.651 255.351L260.678 226.811C268.345 214.73 272.627 200.811 273.076 186.51C273.526 172.208 270.126 158.048 263.233 145.509C256.34 132.971 246.206 122.513 233.89 115.23C221.574 107.946 207.528 104.103 193.219 104.103V50.8389Z" fill="#FF39A1"/>
<path d="M193.219 50.8389C227.088 50.8389 259.685 63.7447 284.374 86.9297C309.064 110.115 323.991 141.836 326.118 175.639L272.958 178.983C271.682 158.702 262.726 139.669 247.912 125.758C233.099 111.847 213.541 104.103 193.219 104.103V50.8389Z" fill="#F40080"/>
</g>
<defs>
<filter id="filter0_d_122_1822" x="0.0582352" y="-9.16113" width="386.322" height="386.322" filterUnits="userSpaceOnUse" color-interpolation-filters="sRGB">
<feFlood flood-opacity="0" result="BackgroundImageFix"/>
<feColorMatrix in="SourceAlpha" type="matrix" values="0 0 0 0 0 0 0 0 0 0 0 0 0 0 0 0 0 0 127 0" result="hardAlpha"/>
<feOffset/>
<feGaussianBlur stdDeviation="30"/>
<feComposite in2="hardAlpha" operator="out"/>
<feColorMatrix type="matrix" values="0 0 0 0 0.956863 0 0 0 0 0 0 0 0 0 0.501961 0 0 0 0.45 0"/>
<feBlend mode="normal" in2="BackgroundImageFix" result="effect1_dropShadow_122_1822"/>
<feBlend mode="normal" in="SourceGraphic" in2="effect1_dropShadow_122_1822" result="shape"/>
</filter>
</defs>
</svg>
