<svg width="20" height="20" viewBox="0 0 20 20" fill="none" xmlns="http://www.w3.org/2000/svg">
<g id="instagram 1">
<g id="Group 14">
<path id="Vector" d="M11.9886 8.01126C13.087 9.10961 13.087 10.8904 11.9886 11.9887C10.8903 13.0871 9.10948 13.0871 8.01114 11.9887C6.91279 10.8904 6.91279 9.10961 8.01114 8.01126C9.10948 6.91291 10.8903 6.91291 11.9886 8.01126Z" fill="white" fill-opacity="0.6"/>
<path id="Vector_2" d="M13.2812 2.5H6.71875C4.39239 2.5 2.5 4.39239 2.5 6.71875V13.2812C2.5 15.6076 4.39239 17.5 6.71875 17.5H13.2812C15.6076 17.5 17.5 15.6076 17.5 13.2812V6.71875C17.5 4.39239 15.6076 2.5 13.2812 2.5ZM10 13.75C7.93228 13.75 6.25 12.0682 6.25 10C6.25 7.93183 7.93228 6.25 10 6.25C12.0677 6.25 13.75 7.93183 13.75 10C13.75 12.0682 12.0677 13.75 10 13.75ZM14.2188 6.25C13.9599 6.25 13.75 6.04012 13.75 5.78125C13.75 5.52233 13.9599 5.3125 14.2188 5.3125C14.4776 5.3125 14.6875 5.52233 14.6875 5.78125C14.6875 6.04012 14.4776 6.25 14.2188 6.25Z" fill="white" fill-opacity="0.6"/>
</g>
</g>
</svg>
