<svg width="21" height="20" viewBox="0 0 21 20" fill="none" xmlns="http://www.w3.org/2000/svg">
<g id="linkedin 1">
<path id="Vector" d="M1.25 3.28283C1.25 2.69359 1.46115 2.20748 1.88345 1.82449C2.30574 1.44149 2.85474 1.25 3.53041 1.25C4.19402 1.25 4.73093 1.43854 5.14117 1.81566C5.56346 2.20455 5.77461 2.71127 5.77461 3.33586C5.77461 3.90152 5.5695 4.37288 5.15927 4.75C4.73697 5.13889 4.18195 5.33333 3.49421 5.33333H3.47611C2.81249 5.33333 2.27559 5.13889 1.86535 4.75C1.45511 4.36111 1.25 3.87205 1.25 3.28283ZM1.48528 18.75V6.94192H5.50314V18.75H1.48528ZM7.72925 18.75H11.7471V12.1566C11.7471 11.7441 11.7954 11.4259 11.8919 11.202C12.0608 10.8013 12.3172 10.4625 12.6611 10.1856C13.0049 9.90866 13.4363 9.7702 13.9551 9.7702C15.3065 9.7702 15.9821 10.6599 15.9821 12.4394V18.75H20V11.9798C20 10.2357 19.5777 8.91288 18.7331 8.01136C17.8885 7.10985 16.7724 6.65909 15.3849 6.65909C13.8284 6.65909 12.6158 7.31313 11.7471 8.62121V8.65657H11.729L11.7471 8.62121V6.94192H7.72925C7.75337 7.31902 7.76544 8.49157 7.76544 10.4596C7.76544 12.4276 7.75337 15.1911 7.72925 18.75Z" fill="white" fill-opacity="0.6"/>
</g>
</svg>
