<svg width="46" height="47" viewBox="0 0 46 47" fill="none" xmlns="http://www.w3.org/2000/svg">
<path d="M22.8334 32.3021C24.1462 32.3021 25.2105 31.2379 25.2105 29.9251C25.2105 28.6122 24.1462 27.548 22.8334 27.548C21.5206 27.548 20.4563 28.6122 20.4563 29.9251C20.4563 31.2379 21.5206 32.3021 22.8334 32.3021Z" fill="#F40080"/>
<g filter="url(#filter0_d_122_1771)">
<path d="M31.9917 20.8979V19.075C31.9917 15.1375 31.0438 9.91663 22.8334 9.91663C14.623 9.91663 13.6751 15.1375 13.6751 19.075V20.8979C9.59174 21.4083 8.25008 23.4791 8.25008 28.5687V31.2812C8.25008 37.2604 10.073 39.0833 16.0522 39.0833H29.6147C35.5938 39.0833 37.4167 37.2604 37.4167 31.2812V28.5687C37.4167 23.4791 36.0751 21.4083 31.9917 20.8979ZM22.8334 34.3291C20.398 34.3291 18.4292 32.3458 18.4292 29.925C18.4292 27.4895 20.4126 25.5208 22.8334 25.5208C25.2542 25.5208 27.2376 27.5041 27.2376 29.925C27.2376 32.3604 25.2688 34.3291 22.8334 34.3291ZM16.0522 20.7666C15.9355 20.7666 15.8334 20.7666 15.7167 20.7666V19.075C15.7167 14.802 16.9272 11.9583 22.8334 11.9583C28.7397 11.9583 29.9501 14.802 29.9501 19.075V20.7812C29.8334 20.7812 29.7313 20.7812 29.6147 20.7812H16.0522V20.7666Z" fill="#F40080"/>
</g>
<defs>
<filter id="filter0_d_122_1771" x="0.250076" y="0.916626" width="45.1667" height="45.1666" filterUnits="userSpaceOnUse" color-interpolation-filters="sRGB">
<feFlood flood-opacity="0" result="BackgroundImageFix"/>
<feColorMatrix in="SourceAlpha" type="matrix" values="0 0 0 0 0 0 0 0 0 0 0 0 0 0 0 0 0 0 127 0" result="hardAlpha"/>
<feOffset dy="-1"/>
<feGaussianBlur stdDeviation="4"/>
<feComposite in2="hardAlpha" operator="out"/>
<feColorMatrix type="matrix" values="0 0 0 0 0.0235294 0 0 0 0 0.352941 0 0 0 0 1 0 0 0 0.55 0"/>
<feBlend mode="normal" in2="BackgroundImageFix" result="effect1_dropShadow_122_1771"/>
<feBlend mode="normal" in="SourceGraphic" in2="effect1_dropShadow_122_1771" result="shape"/>
</filter>
</defs>
</svg>
