<svg width="34" height="34" viewBox="0 0 34 34" fill="none" xmlns="http://www.w3.org/2000/svg">
<path d="M6.72917 15.4066C5.94676 15.4066 5.3125 16.0409 5.3125 16.8233C5.3125 17.6057 5.94676 18.2399 6.72917 18.2399H26.5625C27.3449 18.2399 27.9792 17.6057 27.9792 16.8233C27.9792 16.0409 27.3449 15.4066 26.5625 15.4066H6.72917Z" fill="white"/>
<path d="M6.72917 23.9066C5.94676 23.9066 5.3125 24.5409 5.3125 25.3233C5.3125 26.1057 5.94676 26.7399 6.72917 26.7399H26.5625C27.3449 26.7399 27.9792 26.1057 27.9792 25.3233C27.9792 24.5409 27.3449 23.9066 26.5625 23.9066H6.72917Z" fill="white"/>
<path d="M6.72917 6.375C5.94676 6.375 5.3125 7.00926 5.3125 7.79167C5.3125 8.57407 5.94676 9.20833 6.72917 9.20833H26.5625C27.3449 9.20833 27.9792 8.57407 27.9792 7.79167C27.9792 7.00926 27.3449 6.375 26.5625 6.375H6.72917Z" fill="white"/>
</svg>
