<svg width="155" height="34" viewBox="0 0 155 34" fill="none" xmlns="http://www.w3.org/2000/svg">
<g clip-path="url(#clip0_122_1659)">
<path d="M48.2262 31.808V10.3806H51.4107L51.6895 12.1179H51.8568C52.749 10.941 54.3102 10.1003 56.4353 10.1003C60.3447 10.1003 63.523 13.3011 63.523 18.0648C63.523 22.8285 60.3943 26.0293 56.4291 26.0293C54.3102 26.0293 52.8543 25.1326 52.0736 24.1238H51.9064V31.752H48.22V31.808H48.2262ZM59.8367 18.0648C59.8367 15.2626 58.0523 13.519 55.8715 13.519C53.6907 13.519 51.9064 15.2564 51.9064 18.0648C51.9064 20.8732 53.6907 22.6106 55.8715 22.6106C58.0523 22.6106 59.8367 20.8732 59.8367 18.0648Z" fill="#73738B"/>
<path d="M65.3631 18.0648C65.3631 13.4069 68.7149 10.1003 73.1199 10.1003C77.5869 10.1003 80.8768 13.4692 80.8768 18.0648C80.8768 22.7227 77.525 26.0293 73.1199 26.0293C68.6529 26.0293 65.3631 22.6666 65.3631 18.0648ZM77.1904 18.0648C77.1904 15.3187 75.4061 13.519 73.1137 13.519C70.8833 13.519 69.0371 15.3124 69.0371 18.0648C69.0371 20.8172 70.8771 22.6106 73.1137 22.6106C75.3503 22.6106 77.1904 20.8172 77.1904 18.0648Z" fill="#73738B"/>
<path d="M83.5533 25.7491V4.48975H87.2396V25.7491H83.5533Z" fill="#73738B"/>
<path d="M100.969 10.3805H104.878L98.2367 29.0618C97.5676 30.9113 96.6754 31.808 94.2716 31.808H90.7029V28.3831H93.714C94.2716 28.3831 94.5504 28.1028 94.7177 27.6545L95.0522 26.6457L88.8009 10.3743H92.7103L96.6755 21.0351H97.2888L100.864 10.3743H100.969V10.3805Z" fill="#73738B"/>
<path d="M105.603 26.5399H109.345C109.513 27.5487 110.516 28.8937 112.864 28.8937C115.095 28.8937 116.551 27.4927 116.551 25.3568V23.2271H116.384C115.547 24.1238 114.042 24.9084 112.14 24.9084C108.23 24.9084 105.163 21.882 105.163 17.5044C105.163 13.1267 108.174 10.1003 112.14 10.1003C114.147 10.1003 115.659 10.941 116.607 12.0619H116.774L117.053 10.3806H120.237V25.3568C120.237 29.4542 117.505 32.1443 112.871 32.1443C107.666 32.1443 105.715 28.7256 105.603 26.5399ZM116.489 17.5044C116.489 15.0945 114.816 13.4069 112.635 13.4069C110.516 13.4069 108.837 15.0883 108.837 17.5044C108.837 19.9205 110.51 21.6018 112.635 21.6018C114.76 21.6018 116.489 19.9143 116.489 17.5044Z" fill="#73738B"/>
<path d="M122.74 18.0648C122.74 13.4069 126.092 10.1003 130.497 10.1003C134.964 10.1003 138.254 13.4692 138.254 18.0648C138.254 22.7227 134.902 26.0293 130.497 26.0293C126.03 26.0293 122.74 22.6666 122.74 18.0648ZM134.574 18.0648C134.574 15.3187 132.734 13.519 130.497 13.519C128.267 13.519 126.42 15.3124 126.42 18.0648C126.42 20.8172 128.26 22.6106 130.497 22.6106C132.727 22.6106 134.574 20.8172 134.574 18.0648Z" fill="#73738B"/>
<path d="M140.825 25.7491V10.3806H144.009L144.288 11.8377H144.456C145.069 11.1652 146.574 10.1003 148.867 10.1003C152.386 10.1003 154.895 12.6223 154.895 16.5516V25.8051H151.209V17.056C151.209 15.0945 149.815 13.6311 147.913 13.6311C146.011 13.6311 144.505 15.1443 144.505 17.056V25.8051H140.825V25.7491Z" fill="#73738B"/>
<path d="M28.3571 23.9557L37.3964 18.6814C37.8982 18.4011 38.177 17.8967 38.177 17.3363V6.78759C38.177 6.22715 37.8982 5.72275 37.3964 5.44253L28.3571 0.168173C27.8552 -0.112047 27.2976 -0.112047 26.7958 0.168173L17.7503 5.44253C17.2484 5.72275 16.9696 6.22715 16.9696 6.78759V25.581L10.6068 29.2861L4.24396 25.581V18.233L10.6068 14.5279L14.795 16.9378V11.9997L11.3874 10.0381C11.1644 9.92605 10.8856 9.81396 10.6068 9.81396C10.328 9.81396 10.0492 9.87 9.82615 10.0381L0.78064 15.3187C0.2788 15.5989 0 16.1033 0 16.6638V27.2125C0 27.7729 0.2788 28.2773 0.78064 28.5576L9.81996 33.8319C10.3218 34.1121 10.8794 34.1121 11.3812 33.8319L20.4206 28.5576C20.9224 28.2773 21.2012 27.7729 21.2012 27.2125V8.41909L21.3127 8.36304L27.5702 4.71396L33.9331 8.41909V15.7671L27.5702 19.466L23.382 17.0561V21.9942L26.7896 23.9557C27.2914 24.2359 27.849 24.2359 28.3571 23.9557Z" fill="#73738B"/>
</g>
<defs>
<clipPath id="clip0_122_1659">
<rect width="154.889" height="34" fill="white"/>
</clipPath>
</defs>
</svg>
