<svg width="142" height="28" viewBox="0 0 142 28" fill="none" xmlns="http://www.w3.org/2000/svg">
<mask id="mask0_122_1584" style="mask-type:luminance" maskUnits="userSpaceOnUse" x="0" y="0" width="142" height="28">
<path d="M141.681 0H0V28H141.681V0Z" fill="white"/>
</mask>
<g mask="url(#mask0_122_1584)">
<path d="M38.3132 7.73563C38.3132 7.52328 38.4031 7.31093 38.553 7.15925C38.7029 7.00757 38.9128 6.91656 39.1226 6.91656H46.4375C46.5574 6.91656 46.6773 6.85589 46.7673 6.79522C46.8572 6.70421 46.8872 6.58286 46.8872 6.46152V6.15816C46.8872 6.03682 46.8272 5.91547 46.7673 5.82447C46.6773 5.73346 46.5574 5.70312 46.4375 5.70312H37.9534C37.3539 5.70312 36.7843 5.94581 36.3645 6.37051C35.9448 6.79522 35.705 7.3716 35.705 7.97831V12.2557C35.705 12.8624 35.9448 13.4388 36.3645 13.8635C36.7843 14.2882 37.3539 14.5309 37.9534 14.5309H43.8293C44.0392 14.5309 44.249 14.6219 44.3989 14.8039C44.5488 14.9556 44.6387 15.1679 44.6387 15.3803V20.052C44.6387 20.2643 44.5488 20.4767 44.3989 20.6284C44.249 20.78 44.0392 20.8711 43.8293 20.8711H36.8442C36.7243 20.8711 36.6044 20.9317 36.5144 20.9924C36.4245 21.0834 36.3945 21.2048 36.3945 21.3261V21.6295C36.3945 21.7508 36.4545 21.8721 36.5144 21.9631C36.6044 22.0542 36.7243 22.0845 36.8442 22.0845H44.9685C45.2683 22.0845 45.5381 22.0238 45.8379 21.9025C46.1077 21.7811 46.3475 21.6295 46.5574 21.4171C46.7673 21.2048 46.9171 20.9621 47.0371 20.689C47.157 20.416 47.2169 20.1127 47.2169 19.8093V15.5623C47.2169 14.9556 46.9771 14.3792 46.5574 13.9545C46.1377 13.5298 45.5681 13.2871 44.9685 13.2871H39.0926C38.8828 13.2871 38.6729 13.1961 38.523 13.0444C38.3731 12.8927 38.2832 12.6804 38.2832 12.468V7.73563H38.3132Z" fill="#73738B"/>
<path d="M119.676 7.73563C119.676 7.52328 119.766 7.31093 119.916 7.15925C120.066 7.00757 120.276 6.91656 120.485 6.91656H127.8C127.92 6.91656 128.04 6.85589 128.13 6.79522C128.22 6.70421 128.25 6.58286 128.25 6.46152V6.15816C128.25 6.03682 128.19 5.91547 128.13 5.82447C128.04 5.73346 127.92 5.70312 127.8 5.70312H119.286C118.687 5.70312 118.117 5.94581 117.697 6.37051C117.278 6.79522 117.038 7.3716 117.038 7.97831V12.2557C117.038 12.8624 117.278 13.4388 117.697 13.8635C118.117 14.2882 118.687 14.5309 119.286 14.5309H125.162C125.372 14.5309 125.582 14.6219 125.732 14.8039C125.882 14.9556 125.972 15.1679 125.972 15.3803V20.052C125.972 20.2643 125.882 20.4767 125.732 20.6284C125.582 20.78 125.372 20.8711 125.162 20.8711H118.177C118.057 20.8711 117.937 20.9317 117.847 20.9924C117.757 21.0834 117.727 21.2048 117.727 21.3261V21.6295C117.727 21.7508 117.787 21.8721 117.847 21.9631C117.937 22.0542 118.057 22.0845 118.177 22.0845H126.331C126.631 22.0845 126.901 22.0238 127.201 21.9025C127.471 21.7811 127.71 21.6295 127.92 21.4171C128.13 21.2048 128.28 20.9621 128.4 20.689C128.52 20.416 128.58 20.1127 128.58 19.8093V15.5623C128.58 14.9556 128.34 14.3792 127.92 13.9545C127.501 13.5298 126.931 13.2871 126.331 13.2871H120.455C120.246 13.2871 120.036 13.1961 119.886 13.0444C119.736 12.8927 119.646 12.6804 119.646 12.468V7.73563H119.676Z" fill="#73738B"/>
<path d="M57.5298 20.8102H53.8724C53.6625 20.8102 53.4527 20.7192 53.3028 20.5372C53.1529 20.3855 53.063 20.1732 53.063 19.9608V6.12765C53.063 6.0063 53.003 5.88496 52.943 5.79395C52.8531 5.70295 52.7332 5.67261 52.6133 5.67261H50.9345C50.8145 5.67261 50.6946 5.73328 50.6047 5.79395C50.5147 5.88496 50.4848 6.0063 50.4848 6.12765V19.7485C50.4848 20.3552 50.7246 20.9315 51.1443 21.3563C51.564 21.781 52.1336 22.0236 52.7332 22.0236H57.5298C57.6497 22.0236 57.7697 21.963 57.8596 21.9023C57.9495 21.8113 57.9795 21.6899 57.9795 21.5686V21.2652C57.9795 21.2046 57.9795 21.1439 57.9495 21.0832C57.9195 21.0226 57.8896 20.9619 57.8596 20.9315C57.8296 20.9012 57.7697 20.8405 57.7097 20.8405C57.6497 20.8405 57.5898 20.8102 57.5298 20.8102Z" fill="#73738B"/>
<path d="M84.3908 20.8102H85.6499C85.8598 20.8102 86.0696 20.7192 86.2195 20.5372C86.3694 20.3855 86.4594 20.1732 86.4594 19.9608V6.12765C86.4594 6.0063 86.5193 5.88496 86.5793 5.79395C86.6692 5.70295 86.7891 5.67261 86.909 5.67261H88.6178C88.7378 5.67261 88.8577 5.73328 88.9476 5.79395C89.0375 5.88496 89.0675 6.0063 89.0675 6.12765V19.7485C89.0675 20.3552 88.8277 20.9315 88.408 21.3563C87.9883 21.781 87.4187 22.0236 86.8191 22.0236H84.4208C84.3009 22.0236 84.181 21.963 84.091 21.9023C84.0011 21.8113 83.9711 21.6899 83.9711 21.5686V21.2652C83.9711 21.2046 83.9711 21.1439 84.0011 21.0832C84.0311 21.0226 84.061 20.9619 84.091 20.9315C84.121 20.9012 84.181 20.8405 84.2409 20.8405C84.2709 20.8405 84.3308 20.8102 84.3908 20.8102Z" fill="#73738B"/>
<path d="M79.0546 20.8102H77.7955C77.5856 20.8102 77.3758 20.7192 77.2259 20.5372C77.076 20.3855 76.986 20.1732 76.986 19.9608V6.12765C76.986 6.0063 76.9261 5.88496 76.8661 5.79395C76.7762 5.70295 76.6563 5.67261 76.5364 5.67261H74.8276C74.7076 5.67261 74.5877 5.73328 74.4978 5.79395C74.4079 5.88496 74.3779 6.0063 74.3779 6.12765V19.7485C74.3779 20.3552 74.6177 20.9315 75.0374 21.3563C75.4571 21.781 76.0267 22.0236 76.6263 22.0236H79.0246C79.1445 22.0236 79.2644 21.963 79.3544 21.9023C79.4443 21.8113 79.4743 21.6899 79.4743 21.5686V21.2652C79.4743 21.2046 79.4743 21.1439 79.4443 21.0832C79.4143 21.0226 79.3844 20.9619 79.3544 20.9315C79.3244 20.9012 79.2644 20.8405 79.2045 20.8405C79.1745 20.8405 79.1145 20.8102 79.0546 20.8102Z" fill="#73738B"/>
<path d="M66.9431 20.8102H63.4056C63.1958 20.8102 62.9859 20.7192 62.836 20.5372C62.6861 20.3855 62.5962 20.1732 62.5962 19.9608V6.12765C62.5962 6.0063 62.5362 5.88496 62.4763 5.79395C62.4163 5.70295 62.2664 5.67261 62.1465 5.67261H60.4377C60.3178 5.67261 60.1979 5.73328 60.1079 5.79395C60.018 5.85463 59.988 6.0063 59.988 6.12765V19.7485C59.988 20.3552 60.2279 20.9315 60.6476 21.3563C61.0673 21.781 61.6369 22.0236 62.2365 22.0236H66.9132C67.0331 22.0236 67.153 21.963 67.2429 21.9023C67.3329 21.8113 67.3629 21.6899 67.3629 21.5686V21.2652C67.3629 21.2046 67.3629 21.1439 67.3329 21.0832C67.3029 21.0226 67.2729 20.9619 67.2429 20.9315C67.213 20.9012 67.153 20.8405 67.093 20.8405C67.0631 20.8405 67.0031 20.8102 66.9431 20.8102Z" fill="#73738B"/>
<path d="M113.111 5.70312H111.402C111.282 5.70312 111.162 5.76379 111.072 5.82447C110.982 5.91547 110.952 6.03682 110.952 6.15816V21.5688C110.952 21.6901 111.012 21.8115 111.072 21.9025C111.162 21.9935 111.282 22.0238 111.402 22.0238H113.111C113.231 22.0238 113.35 21.9631 113.44 21.9025C113.53 21.8115 113.56 21.6901 113.56 21.5688V6.15816C113.56 6.09749 113.56 6.03682 113.53 5.97615C113.5 5.91547 113.47 5.8548 113.44 5.82447C113.41 5.79413 113.35 5.73346 113.291 5.73346C113.231 5.70313 113.171 5.70312 113.111 5.70312Z" fill="#73738B"/>
<path d="M82.592 5.70312H80.8832C80.7633 5.70312 80.6434 5.76379 80.5535 5.82447C80.4635 5.91547 80.4335 6.03682 80.4335 6.15816V21.5688C80.4335 21.6901 80.4935 21.8115 80.5535 21.9025C80.6434 21.9935 80.7633 22.0238 80.8832 22.0238H82.592C82.712 22.0238 82.8319 21.9631 82.9218 21.9025C83.0117 21.8115 83.0417 21.6901 83.0417 21.5688V6.15816C83.0417 6.09749 83.0417 6.03682 83.0117 5.97615C82.9818 5.91547 82.9518 5.8548 82.9218 5.82447C82.8918 5.79413 82.8319 5.73346 82.7719 5.73346C82.712 5.73346 82.652 5.70312 82.592 5.70312Z" fill="#73738B"/>
<path d="M97.3118 6.88604H96.0527C95.8428 6.88604 95.633 6.97705 95.4831 7.12873C95.3332 7.28041 95.2432 7.49276 95.2432 7.70511V21.5686C95.2432 21.6899 95.1833 21.8113 95.1233 21.9023C95.0334 21.9933 94.9135 22.0236 94.7935 22.0236H93.0847C92.9648 22.0236 92.8449 21.963 92.755 21.9023C92.665 21.8113 92.6351 21.6899 92.6351 21.5686V7.9478C92.6351 7.34108 92.8749 6.7647 93.2946 6.34C93.7143 5.9153 94.2839 5.67261 94.8835 5.67261H97.2818C97.4017 5.67261 97.5216 5.73328 97.6116 5.79395C97.7015 5.88496 97.7315 6.0063 97.7315 6.12765V6.431C97.7315 6.55235 97.7015 6.67369 97.6116 6.7647C97.5516 6.85571 97.4317 6.88604 97.3118 6.88604Z" fill="#73738B"/>
<path d="M102.648 6.88604H103.907C104.117 6.88604 104.327 6.97705 104.477 7.12873C104.627 7.28041 104.717 7.49276 104.717 7.70511V21.5686C104.717 21.6899 104.777 21.8113 104.837 21.9023C104.927 21.9933 105.046 22.0236 105.166 22.0236H106.845C106.965 22.0236 107.085 21.963 107.175 21.9023C107.265 21.8113 107.295 21.6899 107.295 21.5686V7.9478C107.295 7.34108 107.055 6.7647 106.635 6.34C106.216 5.9153 105.646 5.67261 105.046 5.67261H102.648C102.528 5.67261 102.408 5.73328 102.318 5.79395C102.228 5.88496 102.198 6.0063 102.198 6.12765V6.431C102.198 6.49168 102.198 6.55235 102.228 6.61302C102.258 6.67369 102.288 6.73436 102.318 6.7647C102.348 6.79504 102.408 6.85571 102.468 6.85571C102.528 6.88604 102.588 6.88604 102.648 6.88604Z" fill="#73738B"/>
<path d="M63.8852 6.88604H67.4227C67.6325 6.88604 67.8424 6.97705 67.9923 7.12873C68.1422 7.28041 68.2321 7.49276 68.2321 7.70511V21.5686C68.2321 21.6899 68.2921 21.8113 68.352 21.9023C68.442 21.9933 68.5619 22.0236 68.6818 22.0236H70.3906C70.5105 22.0236 70.6304 21.963 70.7204 21.9023C70.8103 21.8113 70.8403 21.6899 70.8403 21.5686V7.9478C70.8403 7.34108 70.6005 6.7647 70.1808 6.34C69.7611 5.9153 69.1915 5.67261 68.5919 5.67261H63.9152C63.7952 5.67261 63.6753 5.73328 63.5854 5.79395C63.4955 5.88496 63.4655 6.0063 63.4655 6.12765V6.431C63.4655 6.55235 63.4955 6.67369 63.5854 6.73436C63.6454 6.85571 63.7653 6.88604 63.8852 6.88604Z" fill="#73738B"/>
<path d="M131.068 6.88629H133.736C133.946 6.88629 134.156 6.97729 134.306 7.12897C134.456 7.28065 134.546 7.49301 134.546 7.70536V21.5688C134.546 21.6902 134.605 21.8115 134.665 21.9025C134.755 21.9935 134.875 22.0239 134.995 22.0239H136.704C136.824 22.0239 136.944 21.9632 137.034 21.9025C137.124 21.8115 137.154 21.6902 137.154 21.5688V7.94804C137.154 7.34132 136.914 6.76495 136.494 6.34024C136.074 5.91554 135.505 5.67285 134.905 5.67285H131.068C130.948 5.67285 130.828 5.73353 130.738 5.7942C130.648 5.88521 130.618 6.00655 130.618 6.12789V6.43125C130.618 6.55259 130.648 6.67393 130.738 6.73461C130.858 6.82561 130.948 6.88629 131.068 6.88629Z" fill="#73738B"/>
<path d="M99.1106 22.0541H100.819C100.939 22.0541 101.059 21.9934 101.149 21.9327C101.239 21.8417 101.269 21.7204 101.269 21.599V6.18844C101.269 6.06709 101.209 5.94575 101.149 5.85474C101.059 5.76373 100.939 5.7334 100.819 5.7334H99.1106C98.9907 5.7334 98.8707 5.79407 98.7808 5.85474C98.6909 5.94575 98.6609 6.06709 98.6609 6.18844V21.599C98.6609 21.6597 98.6609 21.7204 98.6909 21.7811C98.7208 21.8417 98.7508 21.8721 98.7808 21.9327C98.8108 21.9631 98.8707 22.0238 98.9307 22.0238C99.0206 22.0238 99.0806 22.0541 99.1106 22.0541Z" fill="#73738B"/>
<path d="M141.231 5.67261H139.522C139.402 5.67261 139.282 5.73328 139.192 5.79395C139.102 5.88496 139.072 6.0063 139.072 6.12765V7.70511C139.072 7.82646 139.132 7.9478 139.192 8.03881C139.282 8.12981 139.402 8.16015 139.522 8.16015H141.261C141.381 8.16015 141.501 8.09948 141.591 8.03881C141.681 7.9478 141.711 7.82646 141.711 7.70511V6.12765C141.711 6.06697 141.711 6.0063 141.681 5.94563C141.651 5.88496 141.621 5.82429 141.561 5.79395C141.531 5.76362 141.471 5.73328 141.411 5.70295C141.351 5.67261 141.291 5.67261 141.231 5.67261Z" fill="#73738B"/>
<path d="M17.6876 21.5991C16.2186 23.3585 14.4798 24.845 12.5312 25.9978C12.5312 25.9978 1.76876 20.325 1.76876 5.82442C7.58468 5.5514 11.6918 2.91218 12.5312 2.06278C13.0409 2.57848 14.6897 3.70091 17.2079 4.61099V2.94251C15.4691 2.3358 13.8803 1.33472 12.5612 0.0302734C11.7218 0.879678 8.48405 4.0346 0.0899379 4.45931C-0.749473 21.5687 12.5612 28.0303 12.5612 28.0303C15.4392 26.4528 17.9574 24.2686 19.936 21.6294H17.6876V21.5991Z" fill="#73738B"/>
<path d="M20.8955 12.3164H16.9982V15.896H20.8955V12.3164Z" fill="#73738B"/>
<path d="M16.7283 16.26H15.5891V17.2611H16.7283V16.26Z" fill="#73738B"/>
<path d="M19.2766 18.0195H17.5678V19.597H19.2766V18.0195Z" fill="#73738B"/>
<path d="M23.4737 18.2622H20.9255V20.5374H23.4737V18.2622Z" fill="#73738B"/>
<path d="M30.0089 10.7388H26.9511V13.5297H30.0089V10.7388Z" fill="#73738B"/>
<path d="M29.7392 5.46045H28.3302V6.73455H29.7392V5.46045Z" fill="#73738B"/>
<path d="M26.9812 6.24902H25.5722V7.52313H26.9812V6.24902Z" fill="#73738B"/>
<path d="M26.9813 13.8027H25.1825V15.4712H26.9813V13.8027Z" fill="#73738B"/>
<path d="M25.692 16.7756H23.7734V18.5048H25.692V16.7756Z" fill="#73738B"/>
<path d="M24.1033 3.33691H21.9748V5.24807H24.1033V3.33691Z" fill="#73738B"/>
<path d="M20.0259 1.63818H18.1373V3.33699H20.0259V1.63818Z" fill="#73738B"/>
<path d="M17.9274 4.9751H15.4991V7.15928H17.9274V4.9751Z" fill="#73738B"/>
<path d="M15.679 6.09741H15.4991V8.28159H15.679V6.09741Z" fill="#73738B"/>
<path d="M19.3066 3.24585H19.0968V5.43004H19.3066V3.24585Z" fill="#73738B"/>
<path d="M23.4435 4.9751H23.2637V9.7985H23.4435V4.9751Z" fill="#73738B"/>
<path d="M28.8997 6.46143H28.7199V11.2848H28.8997V6.46143Z" fill="#73738B"/>
<path d="M28.8099 6.55249H26.5315V6.76484H28.8099V6.55249Z" fill="#73738B"/>
<path d="M27.0711 11.376H24.7628V11.558H27.0711V11.376Z" fill="#73738B"/>
<path d="M25.5121 13.9543H23.2038V14.1364H25.5121V13.9543Z" fill="#73738B"/>
<path d="M22.6043 14.6521H20.2959V14.8341H22.6043V14.6521Z" fill="#73738B"/>
<path d="M24.6429 18.2622H22.3645V18.4746H24.6429V18.2622Z" fill="#73738B"/>
<path d="M26.7114 14.2273L26.5315 14.106L27.1611 13.1353L27.311 13.2566L26.7114 14.2273Z" fill="#73738B"/>
<path d="M16.5484 16.6241L16.3985 16.4724L17.208 15.6533L17.3579 15.805L16.5484 16.6241Z" fill="#73738B"/>
<path d="M22.3045 10.1321H20.0261V10.3141H22.3045V10.1321Z" fill="#73738B"/>
<path d="M18.557 8.12988H16.2487V8.3119H18.557V8.12988Z" fill="#73738B"/>
<path d="M20.1159 6.27954H19.906V11.1029H20.1159V6.27954Z" fill="#73738B"/>
<path d="M19.2766 14.4094H19.0667V19.2328H19.2766V14.4094Z" fill="#73738B"/>
<path d="M25.6921 13.9241H25.4823V17.5644H25.6921V13.9241Z" fill="#73738B"/>
<path d="M22.0345 5.24805H18.467V8.52432H22.0345V5.24805Z" fill="#73738B"/>
<path d="M20.4158 10.8601H19.4865V11.7095H20.4158V10.8601Z" fill="#73738B"/>
<path d="M24.8526 9.28271H22.1545V11.6792H24.8526V9.28271Z" fill="#73738B"/>
<path d="M16.4585 8.12988H13.6704V10.7084H16.4585V8.12988Z" fill="#73738B"/>
<path d="M23.6835 13.469H22.1845V14.8644H23.6835V13.469Z" fill="#73738B"/>
<g opacity="0.8">
<path opacity="0.8" d="M12.5314 25.9977V2.06274C11.692 2.91215 7.55486 5.55137 1.76892 5.82439C1.73894 20.3249 12.5314 25.9977 12.5314 25.9977Z" fill="#73738B"/>
</g>
</g>
</svg>
