<svg width="182" height="23" viewBox="0 0 182 23" fill="none" xmlns="http://www.w3.org/2000/svg">
<g clip-path="url(#clip0_122_1540)">
<path d="M37.7832 4.38086C41.496 4.38086 44.1896 7.22848 44.1896 10.8793C44.1896 14.5301 41.496 17.3777 37.7832 17.3777C34.0704 17.3777 31.3768 14.5301 31.3768 10.8793C31.3768 7.22848 34.0704 4.38086 37.7832 4.38086ZM37.7832 15.0412C40.1128 15.0412 41.7872 13.2888 41.7872 10.9523C41.7872 8.61578 40.1128 6.8634 37.7832 6.8634C35.4536 6.8634 33.7792 8.61578 33.7792 10.9523C33.7792 13.2888 35.4536 15.0412 37.7832 15.0412Z" fill="#73738B"/>
<path d="M52.78 15.4065H48.1936L47.6112 17.2319H45.2088L49.2856 4.5271H51.7608L55.8376 17.2319H53.3624L52.78 15.4065ZM52.052 12.9969L50.5232 8.17789L48.9944 12.9969H52.052Z" fill="#73738B"/>
<path d="M61.88 6.71735C60.7152 6.71735 59.9144 7.37449 59.9144 8.25068C59.9144 8.76179 60.2784 9.19989 60.788 9.41894C61.5888 9.711 62.8264 9.56497 63.9912 9.93005C65.5928 10.4412 66.5392 11.6824 66.5392 13.3618C66.5392 15.7713 64.7192 17.5237 62.0256 17.5237C59.2592 17.5237 57.4392 15.8443 57.4392 13.4348H59.8416C59.8416 14.457 60.788 15.1142 62.0984 15.1142C63.336 15.1142 64.2096 14.384 64.2096 13.5078C64.2096 12.8507 63.8456 12.4856 63.336 12.3396C62.5352 12.0475 61.2248 12.1205 60.1328 11.8285C58.4584 11.3173 57.5848 10.0761 57.5848 8.46973C57.5848 6.13322 59.4048 4.45386 62.0256 4.45386C64.6464 4.45386 66.4664 6.06021 66.4664 8.3237H63.9912C63.9912 7.37449 63.1904 6.79037 61.9528 6.79037L61.88 6.71735Z" fill="#73738B"/>
<path d="M69.0144 4.5271H71.4896V17.2319H69.0144V4.5271Z" fill="#73738B"/>
<path d="M78.5512 6.71735C77.3864 6.71735 76.5856 7.37449 76.5856 8.25068C76.5856 8.76179 76.9496 9.19989 77.4592 9.41894C78.26 9.711 79.4976 9.56497 80.6624 9.93005C82.264 10.4412 83.2104 11.6824 83.2104 13.3618C83.2104 15.7713 81.3904 17.5237 78.6968 17.5237C75.9304 17.5237 74.1104 15.8443 74.1104 13.4348H76.5128C76.5128 14.457 77.4592 15.1142 78.7696 15.1142C80.0072 15.1142 80.8808 14.384 80.8808 13.5078C80.8808 12.8507 80.5168 12.4856 80.0072 12.3396C79.2064 12.0475 77.896 12.1205 76.804 11.8285C75.1296 11.3173 74.256 10.0761 74.256 8.46973C74.256 6.13322 76.076 4.45386 78.6968 4.45386C81.3176 4.45386 83.1376 6.06021 83.1376 8.3237H80.6624C80.6624 7.37449 79.8616 6.79037 78.624 6.79037L78.5512 6.71735Z" fill="#73738B"/>
<path d="M101.192 4.5271V17.2319H98.7896L93.6208 8.98107V17.2319H91.1456V4.5271H93.6208L98.7896 12.8509V4.5271H101.192Z" fill="#73738B"/>
<path d="M104.322 4.5271H114.005V7.00964H106.798V9.63821H110.802V12.0477H106.798V14.7493H114.005V17.2319H104.322V4.5271Z" fill="#73738B"/>
<path d="M119.465 7.00964H115.898V4.5271H125.507V7.00964H121.94V17.2319H119.465V7.00964Z" fill="#73738B"/>
<path d="M143.198 4.5271L139.63 17.2319H137.01L135.044 10.2223L133.078 17.2319H130.53L126.963 4.5271H129.438L131.841 13.435L134.17 4.5271H135.918L138.247 13.362L140.722 4.5271H143.198Z" fill="#73738B"/>
<path d="M150.769 4.38086C154.482 4.38086 157.175 7.22848 157.175 10.8793C157.175 14.5301 154.482 17.3777 150.769 17.3777C147.056 17.3777 144.362 14.5301 144.362 10.8793C144.362 7.22848 147.056 4.38086 150.769 4.38086ZM150.769 15.0412C153.098 15.0412 154.773 13.2888 154.773 10.9523C154.773 8.61578 153.098 6.8634 150.769 6.8634C148.439 6.8634 146.765 8.61578 146.765 10.9523C146.765 13.2888 148.439 15.0412 150.769 15.0412Z" fill="#73738B"/>
<path d="M164.455 13.435H162.198V17.2319H159.723V4.5271H165.038C167.658 4.5271 169.551 6.42551 169.551 8.98107C169.551 10.8065 168.605 12.2668 167.149 12.9969L169.842 17.2319H167.003L164.601 13.5081L164.455 13.435ZM162.198 11.0255H165.11C166.275 11.0255 167.149 10.1493 167.149 8.98107C167.149 7.81281 166.348 6.93662 165.183 6.93662H162.271V11.0255H162.198Z" fill="#73738B"/>
<path d="M178.942 17.2319L174.647 11.4636V17.2319H172.172V4.5271H174.647V10.2954L178.942 4.5271H181.927L177.195 10.8065L182 17.2319H178.942Z" fill="#73738B"/>
<path fill-rule="evenodd" clip-rule="evenodd" d="M20.2384 4.52698C18.564 2.33651 16.016 0.876191 13.2496 0.876191C7.86241 0.876191 4.00401 5.9873 4.00401 11.4635C4.00401 15.2603 6.47921 18.181 9.24561 18.181C9.53681 18.181 9.75521 18.181 10.0464 18.1079C8.15361 16.7206 6.98881 14.1651 6.98881 11.4635C6.98881 7.08254 9.90081 3.72381 13.2496 3.72381C16.9624 3.72381 19.5104 7.52064 19.5104 11.4635C19.5104 14.3841 18.4912 17.3048 16.6712 19.4952C15.0696 21.3937 13.0312 22.5619 10.7744 22.927C10.7744 22.927 10.92 22.927 11.2112 22.927C17.3992 22.927 22.4952 17.8159 22.4952 11.4635C22.4952 8.83492 21.6216 6.4254 20.2384 4.52698ZM18.564 11.4635C18.564 7.66667 16.0888 4.74603 13.3224 4.74603C13.0312 4.74603 12.8128 4.74603 12.5216 4.81905C14.4144 6.20635 15.5792 8.68889 15.5792 11.4635C15.5792 15.8444 12.6672 19.2032 9.31841 19.2032C5.60561 19.2032 3.05761 15.4064 3.05761 11.4635C3.05761 8.54286 4.07681 5.62222 5.89681 3.43175C7.49841 1.53333 9.53681 0.365079 11.7936 0C11.7936 0 11.648 0 11.3568 0C5.16881 0 0.0728149 5.11111 0.0728149 11.4635C0.0728149 14.0921 0.946415 16.5016 2.32961 18.4C4.00401 20.5905 6.55201 22.0508 9.31841 22.0508C14.7056 22.0508 18.6368 17.0127 18.6368 11.4635H18.564Z" fill="#73738B"/>
</g>
<defs>
<clipPath id="clip0_122_1540">
<rect width="182" height="23" fill="white"/>
</clipPath>
</defs>
</svg>
