<svg width="130" height="32" viewBox="0 0 130 32" fill="none" xmlns="http://www.w3.org/2000/svg">
<g id="reblonde-ver-2 1" clip-path="url(#clip0_122_1557)">
<g id="Layer 2">
<g id="Layer 1">
<path id="Vector" d="M4.81776 4.98957V7.83997C5.94519 5.82984 7.44807 4.82451 9.32639 4.82397V9.59997H8.13922C7.03097 9.59997 6.19978 9.85597 5.64566 10.368C5.09153 10.88 4.81557 11.7741 4.81776 13.0504V20.2888H0V4.98957H4.81776Z" fill="#73738B"/>
<path id="Vector_2" d="M18.4555 20.4801C16.1633 20.4801 14.2847 19.7628 12.8197 18.3281C11.3546 16.8934 10.6221 14.9881 10.6221 12.6121C10.6221 10.2361 11.35 8.34435 12.8057 6.93688C14.2615 5.52942 16.1447 4.82568 18.4555 4.82568C20.7657 4.82568 22.6816 5.51902 24.2031 6.90568C25.7246 8.29235 26.4854 10.2209 26.4854 12.6913C26.4879 13.187 26.4502 13.6821 26.3727 14.1721H15.5533C15.6318 14.8207 15.9646 15.4148 16.4823 15.8305C17.0085 16.2604 17.5769 16.475 18.1875 16.4745C18.798 16.474 19.2535 16.4148 19.5539 16.2969C19.7924 16.212 20.0159 16.0916 20.2165 15.9401C20.4161 15.7588 20.5998 15.5615 20.7657 15.3505H25.9797C25.5499 16.8574 24.5933 18.1713 23.2749 19.0657C21.9211 20.0086 20.3146 20.4801 18.4555 20.4801ZM20.5108 9.49928C19.9471 9.05166 19.2381 8.81375 18.5106 8.82808C17.7399 8.82808 17.0918 9.05182 16.5662 9.49928C16.038 9.94957 15.6889 10.5659 15.5796 11.2409H21.4686C21.4393 10.9026 21.3394 10.5737 21.1748 10.2744C21.0102 9.97503 20.7846 9.71155 20.5117 9.50008L20.5108 9.49928Z" fill="#73738B"/>
<path id="Vector_3" d="M34.2332 6.9912C35.3037 5.548 36.8383 4.82613 38.8372 4.8256C40.8361 4.82507 42.5314 5.5608 43.923 7.0328C45.3135 8.50427 46.0088 10.3824 46.0088 12.6672C46.0088 14.952 45.3135 16.8253 43.923 18.2872C42.5347 19.7491 40.8545 20.48 38.8824 20.48C36.9104 20.48 35.3607 19.6757 34.2332 18.0672V20.288H29.4155V0H34.2332V6.9912ZM40.0655 15.4496C40.7599 14.8032 41.1072 13.8757 41.1072 12.6672C41.1072 11.4587 40.7597 10.5253 40.0647 9.8672C39.3708 9.20907 38.5728 8.88 37.6706 8.88C36.7684 8.88 35.9701 9.20453 35.2757 9.8536C34.5813 10.5048 34.2338 11.4336 34.2332 12.64C34.2327 13.8464 34.5802 14.7797 35.2757 15.44C35.9707 16.0987 36.769 16.4277 37.6706 16.4272C38.5722 16.4267 39.3705 16.1008 40.0655 15.4496Z" fill="#73738B"/>
<path id="Vector_4" d="M48.9126 20.2888V0H53.7312V20.2888H48.9126Z" fill="#73738B"/>
<path id="Vector_5" d="M59.0422 18.3153C57.4527 16.871 56.658 14.97 56.658 12.6121C56.658 10.2542 57.4486 8.36702 59.0299 6.95048C60.6073 5.53395 62.5607 4.82568 64.8901 4.82568C67.2195 4.82568 69.1683 5.53395 70.7364 6.95048C72.3045 8.36755 73.0885 10.2548 73.0885 12.6121C73.0885 14.9694 72.3091 16.8705 70.7503 18.3153C69.1905 19.7585 67.2461 20.4801 64.9172 20.4801C62.5884 20.4801 60.63 19.7585 59.0422 18.3153ZM67.2275 15.4905C67.8654 14.8329 68.1847 13.8828 68.1853 12.6401C68.1858 11.3974 67.8569 10.4516 67.1987 9.80248C66.541 9.15342 65.7613 8.82915 64.8597 8.82968C63.9581 8.83022 63.1833 9.15448 62.5355 9.80248C61.8876 10.451 61.5637 11.3969 61.5637 12.6401C61.5637 13.8833 61.8975 14.8334 62.5651 15.4905C63.2316 16.1502 64.0156 16.4801 64.9172 16.4801C65.8189 16.4801 66.5889 16.1502 67.2275 15.4905Z" fill="#73738B"/>
<path id="Vector_6" d="M80.8364 4.98968V7.23848C81.8317 5.63048 83.419 4.82622 85.5983 4.82568C87.4009 4.82568 88.8613 5.41048 89.9795 6.58008C91.0976 7.74968 91.6564 9.33982 91.6558 11.3505V20.2889H86.866V11.9817C86.866 10.9945 86.5983 10.2313 86.0628 9.69208C85.5273 9.15288 84.7901 8.88222 83.8512 8.88008C82.9118 8.88008 82.1746 9.14968 81.6396 9.68888C81.1047 10.2281 80.837 10.9913 80.8364 11.9785V20.2889H76.0186V4.98968H80.8364Z" fill="#73738B"/>
<path id="Vector_7" d="M96.5023 18.2872C95.1124 16.8259 94.4174 14.9525 94.4174 12.6672C94.4174 10.3819 95.1124 8.50373 96.5023 7.0328C97.8918 5.56187 99.587 4.82613 101.588 4.8256C103.589 4.82507 105.124 5.54693 106.192 6.9912V0H111.01V20.2888H106.192V18.068C105.029 19.676 103.471 20.48 101.517 20.48C99.564 20.48 97.8923 19.7491 96.5023 18.2872ZM105.152 15.44C105.847 14.7819 106.195 13.8485 106.195 12.64C106.195 11.4315 105.847 10.5037 105.152 9.8568C104.457 9.2056 103.659 8.88 102.757 8.88C101.856 8.88 101.057 9.20907 100.362 9.8672C99.6679 10.5248 99.3204 11.4581 99.3198 12.6672C99.3193 13.8763 99.6668 14.8037 100.362 15.4496C101.057 16.0981 101.855 16.4227 102.757 16.4232C103.659 16.4237 104.458 16.096 105.152 15.44Z" fill="#73738B"/>
<path id="Vector_8" d="M121.748 20.4799C119.456 20.4799 117.577 19.7626 116.113 18.3279C114.648 16.8932 113.916 14.9876 113.915 12.6111C113.915 10.2351 114.643 8.34337 116.099 6.93591C117.555 5.52844 119.438 4.82471 121.748 4.82471C124.058 4.82471 125.974 5.51804 127.495 6.90471C129.017 8.29137 129.778 10.2199 129.778 12.6903C129.78 13.186 129.743 13.6812 129.665 14.1711H118.846C118.924 14.8199 119.257 15.4141 119.776 15.8295C120.301 16.2594 120.869 16.474 121.48 16.4735C122.09 16.473 122.546 16.4138 122.847 16.2959C123.084 16.2109 123.306 16.0905 123.505 15.9391C123.705 15.758 123.888 15.5608 124.054 15.3495H129.266C128.837 16.8564 127.88 18.1703 126.562 19.0647C125.212 20.0082 123.608 20.4799 121.748 20.4799ZM123.803 9.49911C123.239 9.05161 122.53 8.81373 121.802 8.82791C121.032 8.82791 120.384 9.05164 119.859 9.49911C119.331 9.94965 118.982 10.5658 118.872 11.2407H124.761C124.732 10.9025 124.632 10.5737 124.467 10.2744C124.303 9.97504 124.078 9.71151 123.805 9.49991L123.803 9.49911Z" fill="#73738B"/>
<path id="Vector_9" d="M32.9836 26.72C33.1537 26.8719 33.2882 27.0577 33.3777 27.2648C33.4673 27.472 33.5098 27.6954 33.5023 27.92C33.5093 28.143 33.4683 28.365 33.382 28.5716C33.2956 28.7783 33.1658 28.9651 33.0008 29.12C32.6654 29.4352 32.1579 29.5926 31.4782 29.592H30.3478V31.9392H29.5799V26.2512H31.4782C32.1359 26.2534 32.6377 26.4096 32.9836 26.72ZM30.3478 29.0016H31.4782C31.8997 29.0016 32.2132 28.9072 32.4188 28.7184C32.6243 28.5296 32.7268 28.2656 32.7262 27.9264C32.7262 27.2096 32.3102 26.8512 31.4782 26.8512H30.3478V29.0016Z" fill="#73738B"/>
<path id="Vector_10" d="M36.2434 29.948V26.2544H37.0195V29.948C37.0195 30.4184 37.1474 30.7701 37.4034 31.0032C37.6594 31.2363 38.0123 31.3525 38.4623 31.352C38.9123 31.352 39.2664 31.2357 39.5245 31.0032C39.7827 30.7707 39.912 30.4189 39.9126 29.948V26.2544H40.6805V29.948C40.6805 30.6157 40.4708 31.1245 40.0515 31.4744C39.6322 31.8243 39.1009 31.9995 38.4574 32C37.8134 32 37.2836 31.8248 36.8682 31.4744C36.4527 31.124 36.2445 30.6152 36.2434 29.948Z" fill="#73738B"/>
<path id="Vector_11" d="M43.7257 26.2544H45.8172C46.4135 26.2544 46.8745 26.3955 47.2001 26.6776C47.3599 26.8119 47.4871 26.9792 47.5724 27.1672C47.6577 27.3552 47.699 27.5593 47.6933 27.7648C47.6933 28.3995 47.3193 28.8181 46.5711 29.0208C46.9214 29.0702 47.2415 29.2411 47.4725 29.502C47.7035 29.763 47.8298 30.0964 47.8282 30.4408C47.8318 30.6476 47.7867 30.8524 47.6961 31.0395C47.6056 31.2266 47.4722 31.391 47.3061 31.52C46.9603 31.8037 46.4977 31.9459 45.9183 31.9464H43.7257V26.2544ZM44.4927 26.8536V28.7248H45.7835C46.1381 28.7248 46.4149 28.6416 46.6139 28.4752C46.7134 28.3909 46.7921 28.2858 46.844 28.1678C46.896 28.0498 46.9199 27.9219 46.914 27.7936C46.9197 27.6648 46.8957 27.5363 46.8438 27.4177C46.7918 27.2991 46.7133 27.1932 46.6139 27.108C46.4138 26.9384 46.137 26.8536 45.7835 26.8536H44.4927ZM44.4927 31.352H45.8756C46.2461 31.352 46.5369 31.2616 46.7479 31.0808C46.854 30.9875 46.9375 30.8725 46.9922 30.7439C47.047 30.6154 47.0716 30.4766 47.0644 30.3376C47.071 30.1965 47.0435 30.0559 46.9843 29.927C46.925 29.7981 46.8356 29.6845 46.7232 29.5952C46.4952 29.4144 46.1938 29.324 45.8189 29.324H44.4927V31.352Z" fill="#73738B"/>
<path id="Vector_12" d="M50.6843 26.2544H51.4514V31.368H53.501V31.9424H50.6843V26.2544Z" fill="#73738B"/>
<path id="Vector_13" d="M56.0989 31.9424V26.2544H56.8668V31.9424H56.0989Z" fill="#73738B"/>
<path id="Vector_14" d="M60.4851 31.1713C59.9112 30.6241 59.6246 29.9307 59.6251 29.0913C59.6257 28.2518 59.9123 27.5585 60.4851 27.0113C61.0589 26.4673 61.7646 26.1953 62.6021 26.1953C63.1727 26.1856 63.7349 26.3304 64.2258 26.6137C64.703 26.8938 65.0726 27.3184 65.2782 27.8225H64.3483C63.9997 27.1825 63.4177 26.8625 62.6021 26.8625C61.9663 26.8625 61.442 27.0662 61.0293 27.4737C60.6166 27.8811 60.41 28.4214 60.4094 29.0945C60.4094 29.767 60.6161 30.3086 61.0293 30.7193C61.4426 31.1299 61.9668 31.3353 62.6021 31.3353C62.9645 31.3417 63.3223 31.2554 63.6396 31.0849C63.9436 30.9181 64.1902 30.6676 64.3483 30.3649H65.2782C65.0726 30.8678 64.7036 31.2915 64.2275 31.5713C63.7366 31.8548 63.1744 31.9999 62.6037 31.9905C61.7651 31.9915 61.0589 31.7185 60.4851 31.1713Z" fill="#73738B"/>
<path id="Vector_15" d="M73.373 29.5952V31.9424H72.6059V26.2544H74.5034C75.1611 26.2544 75.6632 26.4104 76.0096 26.7224C76.1754 26.8658 76.3075 27.0423 76.3968 27.2399C76.4862 27.4374 76.5308 27.6514 76.5276 27.8672C76.5276 28.3195 76.4012 28.6957 76.1485 28.996C75.8959 29.2963 75.5163 29.4851 75.0099 29.5624L76.6237 31.9424H75.6594L74.1244 29.5952H73.373ZM73.373 26.8536V29.004H74.5034C74.9249 29.004 75.2384 28.9096 75.444 28.7208C75.6495 28.532 75.7523 28.268 75.7523 27.9288C75.7523 27.212 75.336 26.8536 74.5034 26.8536H73.373Z" fill="#73738B"/>
<path id="Vector_16" d="M82.7027 26.2544V26.8456H80.3744V28.7824H82.4495V29.3656H80.3744V31.352H82.7027V31.9424H79.6065V26.2544H82.7027Z" fill="#73738B"/>
<path id="Vector_17" d="M85.6624 26.2544H86.4303V31.368H88.4799V31.9424H85.6624V26.2544Z" fill="#73738B"/>
<path id="Vector_18" d="M95.1096 31.9424L94.6542 30.6952H92.0562L91.6007 31.9424H90.8164L92.9416 26.2544H93.7852L95.903 31.9424H95.1096ZM92.2757 30.1024H94.4347L93.3552 27.164L92.2757 30.1024Z" fill="#73738B"/>
<path id="Vector_19" d="M98.4418 26.8536V26.2544H102.296V26.8536H100.753V31.9424H99.9849V26.8536H98.4418Z" fill="#73738B"/>
<path id="Vector_20" d="M105.105 31.9424V26.2544H105.872V31.9424H105.105Z" fill="#73738B"/>
<path id="Vector_21" d="M111.608 32C110.77 32 110.064 31.725 109.491 31.1752C108.919 30.6253 108.632 29.9304 108.631 29.0904C108.631 28.2504 108.918 27.557 109.491 27.0104C110.065 26.4637 110.771 26.1917 111.608 26.1944C112.446 26.1944 113.151 26.4664 113.721 27.0104C114.292 27.5544 114.577 28.2477 114.577 29.0904C114.577 29.9325 114.292 30.6274 113.721 31.1752C113.151 31.7229 112.446 31.9978 111.608 32ZM113.177 30.72C113.587 30.3104 113.792 29.7688 113.793 29.0952C113.793 28.4216 113.588 27.8813 113.177 27.4744C112.767 27.0664 112.243 26.8626 111.604 26.8632C110.966 26.8637 110.44 27.0674 110.027 27.4744C109.613 27.8813 109.406 28.4216 109.407 29.0952C109.407 29.7688 109.615 30.3104 110.031 30.72C110.447 31.1312 110.973 31.3365 111.608 31.336C112.244 31.3354 112.767 31.1301 113.177 30.72Z" fill="#73738B"/>
<path id="Vector_22" d="M121.184 26.2544H121.952V31.9424H121.184L118.097 27.428V31.9424H117.33V26.2544H118.097L121.184 30.7688V26.2544Z" fill="#73738B"/>
<path id="Vector_23" d="M125.635 27.7729C125.628 27.9607 125.691 28.1446 125.813 28.2905C125.934 28.4295 126.091 28.5342 126.268 28.5937C126.471 28.6642 126.678 28.7219 126.888 28.7665C127.116 28.8153 127.343 28.8721 127.571 28.9345C127.786 28.9921 127.994 29.0726 128.191 29.1745C128.382 29.2784 128.54 29.4318 128.647 29.6177C128.771 29.8414 128.833 30.0936 128.823 30.3481C128.824 30.5658 128.778 30.7812 128.688 30.9804C128.598 31.1796 128.466 31.3583 128.3 31.5049C127.952 31.834 127.481 31.9982 126.888 31.9977C126.295 31.9972 125.813 31.8638 125.441 31.5977C125.263 31.477 125.119 31.3151 125.022 31.1267C124.925 30.9382 124.878 30.7292 124.884 30.5185H125.707C125.714 30.6378 125.745 30.7546 125.8 30.8618C125.854 30.9689 125.93 31.0644 126.023 31.1425C126.211 31.3025 126.491 31.3825 126.862 31.3825C127.234 31.3825 127.529 31.2894 127.748 31.1033C127.849 31.0253 127.931 30.9261 127.988 30.8132C128.045 30.7002 128.075 30.5763 128.077 30.4505C128.077 30.2014 128.018 30.01 127.9 29.8761C127.778 29.7392 127.621 29.6357 127.445 29.5761C127.242 29.506 127.035 29.4498 126.825 29.4081C126.597 29.3617 126.369 29.3057 126.141 29.2401C125.926 29.1792 125.718 29.0952 125.521 28.9897C125.33 28.8823 125.172 28.7263 125.065 28.5385C124.941 28.3101 124.88 28.0538 124.888 27.7953C124.88 27.5755 124.924 27.3568 125.015 27.1556C125.106 26.9544 125.243 26.776 125.415 26.6337C125.767 26.3409 126.226 26.1948 126.791 26.1953C127.356 26.1958 127.806 26.323 128.14 26.5769C128.306 26.7043 128.443 26.8638 128.542 27.0453C128.641 27.2268 128.7 27.4264 128.716 27.6313H127.864C127.852 27.519 127.816 27.4102 127.76 27.3115C127.703 27.2128 127.627 27.1262 127.535 27.0569C127.341 26.8969 127.079 26.8169 126.751 26.8169C126.462 26.8038 126.177 26.8886 125.945 27.0569C125.739 27.2228 125.636 27.4614 125.635 27.7729Z" fill="#73738B"/>
</g>
</g>
</g>
<defs>
<clipPath id="clip0_122_1557">
<rect width="129.778" height="32" fill="white"/>
</clipPath>
</defs>
</svg>
