<svg width="21" height="20" viewBox="0 0 21 20" fill="none" xmlns="http://www.w3.org/2000/svg">
<g id="telegram">
<path id="Vector" d="M14.9958 7.93461C15.5411 7.39792 16.0823 6.14567 13.8106 7.66627C11.6884 9.10395 9.55183 10.5209 7.40114 11.917C7.07365 12.0627 6.71959 12.1418 6.36026 12.1495C6.00093 12.1572 5.64372 12.0933 5.31011 11.9617C3.94703 11.5592 2.35579 11.0225 2.35579 11.0225C2.35579 11.0225 1.26928 10.3507 3.12918 9.63509C3.12918 9.63509 10.9925 6.45873 13.7197 5.33967C14.7647 4.89243 18.3097 3.46128 18.3097 3.46128C18.3097 3.46128 19.9464 2.83418 19.8101 4.35575C19.7646 4.98188 19.4011 7.17528 19.0376 9.54565C18.4914 12.9009 17.9008 16.5702 17.9008 16.5702C17.9008 16.5702 17.8099 17.5988 17.0375 17.7777C16.2107 17.7639 15.4118 17.4808 14.7657 16.9727C14.5839 16.8385 11.357 14.825 10.1747 13.8411C10.0544 13.7608 9.9567 13.652 9.89062 13.5247C9.82464 13.3973 9.79234 13.2556 9.79689 13.1126C9.80143 12.9697 9.84262 12.8303 9.9166 12.7072C9.99058 12.5842 10.095 12.4816 10.2201 12.4089C11.8418 10.9485 13.4339 9.45678 14.9958 7.93461Z" fill="white" fill-opacity="0.6"/>
</g>
</svg>
