<svg width="20" height="20" viewBox="0 0 20 20" fill="none" xmlns="http://www.w3.org/2000/svg">
<g id="twitter 1">
<path id="Vector" d="M18.3334 4.83326C17.707 5.10501 17.0445 5.28465 16.3667 5.3666C17.0818 4.93936 17.6177 4.26725 17.875 3.47493C17.203 3.87498 16.4673 4.15684 15.7 4.30826C15.1871 3.75207 14.5042 3.38184 13.7582 3.25564C13.0122 3.12944 12.2455 3.2544 11.5782 3.61092C10.9109 3.96745 10.3808 4.53537 10.0711 5.22563C9.76131 5.91588 9.68943 6.68942 9.86669 7.42493C8.50788 7.3562 7.17872 7.00239 5.96557 6.38648C4.75241 5.77057 3.68239 4.90634 2.82502 3.84993C2.5243 4.37507 2.36629 4.96978 2.36669 5.57493C2.36562 6.13692 2.50353 6.69044 2.76815 7.18623C3.03276 7.68202 3.41587 8.10469 3.88335 8.4166C3.34 8.40181 2.80826 8.25601 2.33335 7.9916V8.03326C2.33743 8.82067 2.61335 9.58251 3.11445 10.1899C3.61555 10.7973 4.31107 11.213 5.08335 11.3666C4.78607 11.4571 4.47742 11.5048 4.16669 11.5083C3.9516 11.5058 3.73704 11.4862 3.52502 11.4499C3.74495 12.1273 4.17054 12.7192 4.74258 13.1434C5.31463 13.5676 6.00467 13.8029 6.71669 13.8166C5.51436 14.7627 4.02992 15.279 2.50002 15.2833C2.22147 15.2842 1.94313 15.2675 1.66669 15.2333C3.22871 16.2418 5.04903 16.7772 6.90835 16.7749C8.19143 16.7883 9.4643 16.5458 10.6526 16.0617C11.8409 15.5775 12.9209 14.8615 13.8294 13.9553C14.7378 13.0492 15.4567 11.9711 15.9438 10.784C16.431 9.59695 16.6767 8.3247 16.6667 7.0416C16.6667 6.89993 16.6667 6.74993 16.6667 6.59993C17.3206 6.11227 17.8846 5.51445 18.3334 4.83326Z" fill="white" fill-opacity="0.6"/>
</g>
</svg>
