<svg width="137" height="32" viewBox="0 0 137 32" fill="none" xmlns="http://www.w3.org/2000/svg">
<g clip-path="url(#clip0_122_1915)">
<path d="M36.1968 8.33105V11.4288H40.9542V23.6676H44.5985V11.4288H49.328V8.33105H36.1978H36.1968Z" fill="white"/>
<path d="M54.7318 12.3232C51.3134 12.3232 48.4622 14.9202 48.4622 18.0917C48.4622 20.8181 50.3458 23.0673 53.135 23.6911C53.6359 23.8035 54.1753 23.8655 54.7318 23.8655C55.2884 23.8655 55.8118 23.8035 56.3009 23.6911C58.3761 23.2075 59.8264 21.7854 60.5071 20.0991L57.0372 20.0541C56.6658 20.6726 55.7946 21.1167 54.7318 21.1167C53.0451 21.1167 52.1279 20.0263 51.9534 18.8621H60.8271C61.3729 15.3428 58.7465 12.3243 54.7318 12.3243V12.3232ZM52.0776 16.9275C52.3526 15.7922 53.2698 14.8249 54.7318 14.8249C56.1938 14.8249 57.0875 15.5675 57.4086 16.9275H52.0776Z" fill="white"/>
<path d="M71.3094 12.5191V13.908C70.466 12.9632 69.2288 12.3447 67.8395 12.3447C64.6169 12.3447 62.2163 14.824 62.2163 18.0907C62.2163 20.8514 63.9084 23.0663 66.3882 23.6901C66.8442 23.8025 67.3333 23.8646 67.8395 23.8646C68.2612 23.8646 68.6722 23.8025 69.0597 23.6901C69.9426 23.443 70.7068 22.9251 71.3094 22.2563V23.6677H74.6775V12.5191H71.3094ZM68.4357 21.3115C66.872 21.3115 65.6123 19.928 65.6123 18.0897C65.6123 16.2514 66.872 14.8743 68.4357 14.8743C70.1224 14.8743 71.2869 16.3081 71.2869 18.0897C71.2869 20.4672 69.5777 21.3115 68.4357 21.3115Z" fill="white"/>
<path d="M79.8341 12.5929C79.8341 11.3785 81.3186 10.5631 82.9326 10.5631C84.6932 10.5631 86.0535 11.4791 86.0535 12.6208H88.6575C88.6575 10.2143 86.1049 8.33105 82.9326 8.33105C79.7603 8.33105 77.2301 10.1137 77.2301 12.4966C77.2301 17.9441 86.3007 15.3921 86.3007 19.1083C86.3007 20.4972 84.6643 21.4356 82.9326 21.4356C80.9247 21.4356 79.5869 20.3003 79.5869 19.1083H76.9829C76.9829 21.6828 79.6597 23.6676 82.9326 23.6676C85.8566 23.6676 88.9047 21.9588 88.9047 19.2602C88.9047 13.5816 79.8341 16.1122 79.8341 12.5929Z" fill="white"/>
<path d="M106.718 12.519L103.699 21.0417L100.747 12.519H98.6667L95.7203 21.0417L92.6946 12.519H90.142L94.1566 23.6676H97.0078L99.707 16.2352L102.434 23.6676H105.235L109.272 12.519H106.719H106.718Z" fill="white"/>
<path d="M119.112 12.5191V14.4976C118.291 13.2382 116.902 12.395 115.317 12.395C112.246 12.395 109.919 14.8743 109.919 18.0897C109.919 20.9124 111.729 23.1883 114.265 23.6891C114.602 23.7565 114.956 23.7907 115.317 23.7907C115.632 23.7907 115.941 23.7565 116.245 23.6891C117.42 23.4301 118.438 22.6886 119.113 21.6817V23.6666H121.543V12.5181H119.113L119.112 12.5191ZM115.716 21.93C113.855 21.93 112.348 20.249 112.348 18.0897C112.348 15.9304 113.855 14.2504 115.716 14.2504C117.577 14.2504 119.112 15.9593 119.112 18.0897C119.112 20.6192 117.301 21.93 115.716 21.93Z" fill="white"/>
<path d="M130.854 12.396C129.297 12.396 127.908 13.2392 127.064 14.4986V12.5201H124.664V27.8567H127.064V21.6838C127.739 22.6896 128.74 23.4322 129.921 23.6911C130.218 23.7585 130.534 23.7928 130.854 23.7928C131.214 23.7928 131.568 23.7585 131.906 23.6911C134.448 23.1968 136.259 20.9305 136.259 18.0917C136.259 14.8988 133.931 12.3971 130.855 12.3971L130.854 12.396ZM130.46 21.9309C128.526 21.9309 127.064 20.2221 127.064 18.0906C127.064 15.5665 128.898 14.2514 130.46 14.2514C132.316 14.2514 133.829 15.9378 133.829 18.0906C133.829 20.2435 132.316 21.9309 130.46 21.9309Z" fill="white"/>
<path d="M27.32 27.3137C33.5699 21.0653 33.5699 10.9347 27.32 4.68629C21.0701 -1.5621 10.9371 -1.5621 4.68716 4.68629C-1.56273 10.9347 -1.56273 21.0653 4.68716 27.3137C10.9371 33.5621 21.0701 33.5621 27.32 27.3137Z" fill="url(#paint0_linear_122_1915)"/>
<path d="M25.3987 20.7231H24.3756V20.6952C23.8918 21.7471 23.2229 22.7251 22.3795 23.5736C20.4905 25.4568 17.9881 26.4969 15.3167 26.4969C11.3128 26.4969 7.85476 24.13 6.26861 20.7231C5.66711 19.4412 5.33533 18.0191 5.33533 16.5125V11.6557C5.33533 13.2297 6.35316 14.6133 8.05169 15.6137V16.5136C8.05169 20.5166 11.3128 23.7769 15.3167 23.7769C17.2571 23.7769 19.0841 23.0236 20.4562 21.6465C21.8283 20.2801 22.5818 18.4536 22.5818 16.5136V15.6137C22.7166 15.5345 22.8408 15.4564 22.9639 15.3719C23.0762 15.2991 23.1779 15.2253 23.2785 15.1525C23.3406 15.1023 23.4027 15.0573 23.4637 15.006C23.5482 14.9385 23.6328 14.8658 23.7163 14.7984C23.727 14.7866 23.7387 14.7812 23.7441 14.7705C23.8233 14.7031 23.8961 14.6357 23.9635 14.563C24.138 14.4003 24.2899 14.2259 24.4248 14.0515C24.4644 14.0012 24.504 13.9563 24.5372 13.9049C24.5543 13.8824 24.565 13.8653 24.5821 13.8428C24.7619 13.5903 24.9086 13.3196 25.0209 13.0446C25.0552 12.9601 25.083 12.882 25.1108 12.7974C25.1387 12.7076 25.1676 12.6177 25.19 12.5278C25.2072 12.4604 25.2243 12.3876 25.235 12.3084C25.2521 12.241 25.2575 12.1736 25.2692 12.1062C25.2864 11.9596 25.2971 11.8087 25.2971 11.6568C25.2971 11.5273 25.2917 11.3925 25.2746 11.2684C25.2639 11.156 25.2468 11.0437 25.2179 10.9367C25.2125 10.8971 25.2061 10.8575 25.1954 10.819C25.1836 10.7569 25.1676 10.7013 25.1451 10.6392C25.128 10.5718 25.1055 10.499 25.0777 10.4316V10.4263H25.3977C28.2371 10.4263 30.5489 12.7364 30.5489 15.5763C30.5489 18.4161 28.2382 20.7263 25.3977 20.7263L25.3987 20.7231Z" fill="url(#paint1_linear_122_1915)"/>
<path d="M25.4009 10.4229H25.0809V10.4282C25.1087 10.4956 25.1312 10.5684 25.1483 10.6358C25.1708 10.6979 25.1879 10.7535 25.1986 10.8156C25.2104 10.8552 25.2157 10.8948 25.2211 10.9333C25.2489 11.0403 25.2661 11.1526 25.2778 11.265C25.295 11.3891 25.3003 11.5239 25.3003 11.6534C25.3003 11.8054 25.2885 11.9573 25.2725 12.1028C25.2607 12.1702 25.2554 12.2376 25.2382 12.3051C25.2265 12.3842 25.2104 12.457 25.1933 12.5244C25.1708 12.6143 25.143 12.7042 25.1141 12.7941C25.0862 12.8786 25.0573 12.9567 25.0242 13.0412C24.9118 13.3162 24.7652 13.5869 24.5854 13.8395C24.5682 13.8619 24.5575 13.8791 24.5404 13.9015C24.5062 13.9518 24.4676 13.9968 24.428 14.0481C24.2932 14.2225 24.1412 14.3969 23.9667 14.5596C23.8993 14.6323 23.8265 14.6998 23.7473 14.7672C23.742 14.7789 23.7302 14.7843 23.7195 14.795C23.635 14.8624 23.5504 14.9352 23.4669 15.0026C23.4048 15.0529 23.3428 15.0978 23.2818 15.1492C23.1801 15.2219 23.0795 15.2958 22.9671 15.3685C22.8429 15.453 22.7199 15.5312 22.585 15.6103V16.5102C22.585 18.4502 21.8315 20.2767 20.4594 21.6431C19.0873 23.0202 17.2593 23.7735 15.32 23.7735C11.3161 23.7735 8.05493 20.5132 8.05493 16.5102V15.6103C6.3564 14.6099 5.33856 13.2263 5.33856 11.6523V16.5092C5.33856 18.0157 5.67035 19.4378 6.27184 20.7197C7.85799 24.1266 11.3161 26.4935 15.32 26.4935C17.9914 26.4935 20.4937 25.4535 22.3827 23.5702C23.2261 22.7217 23.895 21.7426 24.3788 20.6919V20.7197H25.402C28.2414 20.7197 30.5532 18.4095 30.5532 15.5697C30.5532 12.7298 28.2425 10.4197 25.402 10.4197L25.4009 10.4229ZM25.4009 18.0008H25.1986V17.8713C25.2607 17.4272 25.3057 16.9714 25.3057 16.5102V13.1429H25.4009C26.7388 13.1429 27.8304 14.2332 27.8304 15.5718C27.8304 16.9104 26.7398 18.0008 25.4009 18.0008Z" fill="white"/>
<path d="M25.2971 11.6546C25.2971 11.8066 25.2853 11.9585 25.2692 12.104C25.2575 12.1715 25.2521 12.2389 25.235 12.3063C25.2232 12.3855 25.2072 12.4582 25.19 12.5256C25.1676 12.6155 25.1397 12.7054 25.1108 12.7953C25.083 12.8798 25.0541 12.9579 25.0209 13.0425C24.9086 13.3174 24.7619 13.5882 24.5821 13.8407C24.565 13.8632 24.5543 13.8803 24.5372 13.9027C24.5029 13.953 24.4644 13.998 24.4248 14.0493C24.2899 14.2238 24.138 14.3982 23.9635 14.5608C23.8961 14.6336 23.8233 14.701 23.7441 14.7684C23.7387 14.7802 23.727 14.7855 23.7163 14.7962C23.6317 14.8636 23.5472 14.9364 23.4637 15.0038C23.4016 15.0541 23.3395 15.099 23.2785 15.1504C23.1768 15.2232 23.0762 15.297 22.9639 15.3697C22.8397 15.4543 22.7166 15.5324 22.5818 15.6116C20.788 16.6687 18.2354 17.3097 15.3167 17.3097C14.4166 17.3097 13.5561 17.2476 12.7416 17.1353L13.371 18.4728C13.6578 19.0859 13.4833 19.8339 12.9268 20.2105C12.6849 20.3732 12.4206 20.447 12.1562 20.447C11.65 20.447 11.1555 20.1602 10.9243 19.6659L9.31569 16.2365L8.84905 15.2413C8.69172 14.9043 8.80409 14.5052 9.11876 14.3083L10.1591 13.6395L12.9033 11.8793C13.5722 11.4524 14.4723 11.6771 14.849 12.4026C15.1755 13.0318 14.9218 13.8139 14.3203 14.1959L13.8194 14.5223C14.2914 14.5672 14.7923 14.5897 15.3157 14.5897C18.397 14.5897 20.7088 13.7465 21.8219 12.8359C22.2553 12.4871 22.5079 12.1222 22.5646 11.7905C22.57 11.7456 22.5754 11.7006 22.5754 11.6557C22.5754 10.9527 21.58 10.0475 19.8429 9.43542L20.8329 8.79448C21.1423 8.59759 21.2546 8.19848 21.0973 7.86677L20.6082 6.81494C20.9175 6.92194 21.215 7.0343 21.4965 7.15842C21.6035 7.20336 21.7159 7.25365 21.8165 7.30501C21.946 7.36172 22.0691 7.42271 22.1879 7.49012C22.4298 7.61425 22.6599 7.74907 22.8793 7.89459C22.9467 7.93418 23.0142 7.97912 23.0762 8.02941C23.1715 8.09147 23.2678 8.15889 23.3577 8.23165C23.453 8.29906 23.5493 8.37824 23.6328 8.451C23.8629 8.64788 24.0716 8.85012 24.2568 9.06412C24.3242 9.1433 24.3916 9.22142 24.4537 9.30595C24.459 9.3113 24.4655 9.31772 24.4655 9.32842C24.5222 9.39048 24.5671 9.45789 24.6121 9.5253C24.809 9.81207 24.9664 10.116 25.0787 10.4252V10.4305C25.1066 10.4979 25.129 10.5707 25.1462 10.6381C25.1686 10.7002 25.1858 10.7558 25.1965 10.8179C25.2072 10.8575 25.2136 10.8971 25.2189 10.9356C25.2468 11.0426 25.2639 11.1549 25.2757 11.2673C25.2928 11.3914 25.2981 11.5262 25.2981 11.6557L25.2971 11.6546Z" fill="white"/>
<path d="M20.8329 8.79331L19.8429 9.43425H19.8376L17.0484 11.2276C16.8183 11.3742 16.5647 11.4416 16.3121 11.4416C15.8337 11.4416 15.3735 11.1944 15.1198 10.7333C14.7709 10.0977 15.0181 9.29408 15.6314 8.90566L15.8904 8.7366C15.7052 8.73125 15.5083 8.72483 15.3167 8.72483C13.6749 8.72483 12.2525 8.9613 11.1159 9.32618C11.0035 9.36042 10.8965 9.39359 10.7895 9.43318C10.7777 9.43853 10.767 9.43853 10.7616 9.44388C10.6439 9.48347 10.5315 9.52306 10.4245 9.568C9.93538 9.76489 9.51369 9.98424 9.16478 10.2143C9.10805 10.2539 9.05775 10.2871 9.00745 10.3266C8.54616 10.6584 8.2422 11.0072 8.11912 11.3271C8.10199 11.3614 8.09664 11.3892 8.08487 11.417C8.0731 11.4566 8.06775 11.4898 8.06239 11.524C8.05704 11.5689 8.05169 11.6085 8.05169 11.6535C8.05169 12.2719 8.81052 13.0359 10.1601 13.6384L9.11983 14.3071C8.80517 14.504 8.69279 14.9031 8.85012 15.2402L9.31676 16.2353C8.86082 16.0502 8.43913 15.8415 8.05169 15.6115C6.35316 14.611 5.33533 13.2275 5.33533 11.6535C5.33533 11.2319 5.40811 10.8156 5.55473 10.4219C5.58256 10.3491 5.61146 10.2753 5.64464 10.2025C5.66176 10.1522 5.68424 10.1009 5.71206 10.0559C5.72384 10.0163 5.74631 9.98317 5.76879 9.94358C5.80839 9.87082 5.84799 9.79164 5.89829 9.71353C5.94324 9.64077 5.99355 9.56158 6.04492 9.48882C6.09522 9.41606 6.15195 9.34223 6.2076 9.26947C6.26326 9.19671 6.31998 9.12288 6.38206 9.05547C6.43878 8.98805 6.49444 8.92599 6.55116 8.86393C6.62394 8.79117 6.70314 8.71199 6.78127 8.63923C6.8487 8.58252 6.91078 8.52688 6.9782 8.46481C7.14088 8.32999 7.30999 8.19517 7.4898 8.0657C7.64178 7.95869 7.80446 7.85169 7.96821 7.75646C8.05811 7.70617 8.14266 7.65481 8.23257 7.60452C8.32247 7.55423 8.41237 7.50287 8.50228 7.45793L8.50977 7.46328C10.2693 6.55055 12.6346 6.00163 15.3178 6.00163C15.9921 6.00163 16.6449 6.04122 17.2743 6.10863L16.5775 4.61916C16.3025 4.03493 16.4534 3.31481 16.9714 2.92746C17.6917 2.39352 18.6699 2.66852 19.0295 3.43358L20.6093 6.8127L21.0984 7.86453C21.2557 8.19624 21.1433 8.59536 20.834 8.79224L20.8329 8.79331Z" fill="white"/>
<path style="mix-blend-mode:multiply" opacity="0.7" d="M25.2971 11.6545C25.2971 11.8064 25.2853 11.9584 25.2692 12.1039C25.2575 12.1713 25.2521 12.2387 25.235 12.3061C25.2232 12.3853 25.2072 12.4581 25.19 12.5255C25.1676 12.6154 25.1397 12.7052 25.1108 12.7951C25.083 12.8797 25.0541 12.9578 25.0209 13.0423C24.9086 13.3173 24.7619 13.588 24.5821 13.8405L21.8208 12.8347C22.2543 12.4859 22.5068 12.121 22.5636 11.7893C22.5689 11.7444 22.5743 11.6994 22.5743 11.6545C22.5743 10.9515 21.5789 10.0462 19.8419 9.4342L20.8319 8.79326C21.1412 8.59637 21.2536 8.19726 21.0962 7.86555L20.6071 6.81372C20.9164 6.92072 21.214 7.03307 21.4954 7.1572C21.6025 7.20214 21.7148 7.25243 21.8154 7.30379C21.945 7.3605 22.068 7.42149 22.1868 7.4889C22.4287 7.61302 22.6588 7.74785 22.8782 7.89337C22.9457 7.93296 23.0131 7.9779 23.0752 8.02819C23.1704 8.09025 23.2667 8.15766 23.3566 8.23043C23.4519 8.29784 23.5482 8.37702 23.6317 8.44978C23.8618 8.64666 24.0705 8.8489 24.2557 9.0629C24.3231 9.14208 24.3905 9.22019 24.4526 9.30473C24.458 9.31008 24.4644 9.3165 24.4644 9.3272C24.5211 9.38926 24.5661 9.45667 24.611 9.52408C24.8079 9.81085 24.9653 10.1147 25.0777 10.424V10.4293C25.1055 10.4967 25.128 10.5695 25.1451 10.6369C25.1676 10.699 25.1847 10.7546 25.1954 10.8167C25.2061 10.8563 25.2125 10.8958 25.2179 10.9344C25.2457 11.0414 25.2628 11.1537 25.2746 11.2661C25.2917 11.3902 25.2971 11.525 25.2971 11.6545Z" fill="url(#paint2_linear_122_1915)"/>
<path style="mix-blend-mode:multiply" opacity="0.7" d="M11.1159 9.32724C11.0035 9.36148 10.8965 9.39465 10.7895 9.43424C10.7777 9.43959 10.767 9.43959 10.7616 9.44494C10.6439 9.48453 10.5369 9.52947 10.4245 9.56906C9.93538 9.76595 9.51369 9.9853 9.16478 10.2154C9.10805 10.2549 9.05775 10.2881 9.00745 10.3277C8.54616 10.6594 8.2422 11.0082 8.11912 11.3282C8.10199 11.3624 8.09664 11.3902 8.08487 11.4181C8.0731 11.4576 8.06775 11.4908 8.06239 11.5251C8.05704 11.57 8.05169 11.6149 8.05169 11.6545C8.05169 12.273 8.81052 13.037 10.1601 13.6394L9.11983 14.3082C8.80517 14.5051 8.69279 14.9042 8.85012 15.2412L9.31676 16.2364C8.86082 16.0512 8.43913 15.8426 8.05169 15.6125C6.35316 14.6121 5.33533 13.2285 5.33533 11.6545C5.33533 11.2329 5.40811 10.8167 5.55473 10.4229C5.58256 10.3502 5.61146 10.2763 5.64464 10.2036C5.66176 10.1533 5.68424 10.1019 5.71206 10.057C5.72384 10.0174 5.74631 9.98423 5.76879 9.94464C5.80839 9.87188 5.84799 9.7927 5.89829 9.71459C5.94324 9.64182 5.99355 9.56264 6.04492 9.48988C6.09522 9.41712 6.15195 9.34329 6.2076 9.27053C6.26326 9.19777 6.31998 9.12393 6.38206 9.05652C6.43878 8.98911 6.49444 8.92705 6.55116 8.86499C6.62394 8.79223 6.70314 8.71305 6.78127 8.64029C6.8487 8.58357 6.91078 8.52793 6.9782 8.46587C7.14088 8.33105 7.30999 8.19623 7.4898 8.06676C7.64178 7.95975 7.80446 7.85275 7.96821 7.75752C8.05811 7.70723 8.14266 7.65587 8.23257 7.60558C8.32247 7.55529 8.41237 7.50393 8.50228 7.45898L11.117 9.3251L11.1159 9.32724Z" fill="url(#paint3_linear_122_1915)"/>
</g>
<defs>
<linearGradient id="paint0_linear_122_1915" x1="27.0915" y1="-0.246306" x2="5.01998" y2="32.1085" gradientUnits="userSpaceOnUse">
<stop stop-color="#F40080"/>
<stop offset="0.02" stop-color="#F00585"/>
<stop offset="0.19" stop-color="#DD24A4"/>
<stop offset="0.36" stop-color="#CE3CBC"/>
<stop offset="0.54" stop-color="#C44DCD"/>
<stop offset="0.73" stop-color="#BE57D7"/>
<stop offset="0.97" stop-color="#BC5BDB"/>
</linearGradient>
<linearGradient id="paint1_linear_122_1915" x1="24.0652" y1="5.4357" x2="9.17717" y2="27.2599" gradientUnits="userSpaceOnUse">
<stop stop-color="#F40080"/>
<stop offset="0.02" stop-color="#F00585"/>
<stop offset="0.19" stop-color="#DD24A4"/>
<stop offset="0.36" stop-color="#CE3CBC"/>
<stop offset="0.54" stop-color="#C44DCD"/>
<stop offset="0.73" stop-color="#BE57D7"/>
<stop offset="0.97" stop-color="#9D56E4"/>
<stop offset="0.98" stop-color="#674FF5"/>
<stop offset="0.99" stop-color="#4D4BFE"/>
<stop offset="1" stop-color="#4A4BFF"/>
</linearGradient>
<linearGradient id="paint2_linear_122_1915" x1="27.1197" y1="14.9373" x2="18.5681" y2="6.54951" gradientUnits="userSpaceOnUse">
<stop offset="0.43" stop-color="white" stop-opacity="0"/>
<stop offset="0.45" stop-color="#FBF0F7" stop-opacity="0.07"/>
<stop offset="0.51" stop-color="#F0BFDE" stop-opacity="0.32"/>
<stop offset="0.57" stop-color="#E695C9" stop-opacity="0.53"/>
<stop offset="0.63" stop-color="#DE72B8" stop-opacity="0.7"/>
<stop offset="0.69" stop-color="#D758AB" stop-opacity="0.83"/>
<stop offset="0.76" stop-color="#D345A1" stop-opacity="0.92"/>
<stop offset="0.82" stop-color="#D0399B" stop-opacity="0.98"/>
<stop offset="0.88" stop-color="#D0369A"/>
</linearGradient>
<linearGradient id="paint3_linear_122_1915" x1="2.00569" y1="3.54271" x2="14.2098" y2="18.4906" gradientUnits="userSpaceOnUse">
<stop offset="0.47" stop-color="white" stop-opacity="0"/>
<stop offset="0.49" stop-color="#F6DAEC" stop-opacity="0.18"/>
<stop offset="0.53" stop-color="#ECB3D9" stop-opacity="0.38"/>
<stop offset="0.56" stop-color="#E492C9" stop-opacity="0.54"/>
<stop offset="0.6" stop-color="#DE75BB" stop-opacity="0.69"/>
<stop offset="0.65" stop-color="#D85EAF" stop-opacity="0.8"/>
<stop offset="0.7" stop-color="#D44CA6" stop-opacity="0.89"/>
<stop offset="0.76" stop-color="#D140A0" stop-opacity="0.95"/>
<stop offset="0.84" stop-color="#CF399D" stop-opacity="0.99"/>
<stop offset="1" stop-color="#CF379C"/>
</linearGradient>
<clipPath id="clip0_122_1915">
<rect width="136.258" height="32" fill="white"/>
</clipPath>
</defs>
</svg>
