<svg width="267" height="267" viewBox="0 0 267 267" fill="none" xmlns="http://www.w3.org/2000/svg">
<path d="M266.322 133.161C266.322 206.704 206.704 266.322 133.161 266.322C59.6182 266.322 0 206.704 0 133.161C0 59.6182 59.6182 0 133.161 0C206.704 0 266.322 59.6182 266.322 133.161ZM53.2644 133.161C53.2644 177.287 89.0354 213.058 133.161 213.058C177.287 213.058 213.058 177.287 213.058 133.161C213.058 89.0354 177.287 53.2644 133.161 53.2644C89.0354 53.2644 53.2644 89.0354 53.2644 133.161Z" fill="#FFC1E2"/>
<path d="M133.161 0C157.364 2.88614e-07 181.109 6.59624 201.844 19.0796C222.579 31.563 239.519 49.4615 250.844 70.851C262.169 92.2405 267.451 116.312 266.121 140.478C264.791 164.644 256.9 187.991 243.296 208.009C229.692 228.026 210.89 243.958 188.91 254.09C166.931 264.223 142.605 268.174 118.549 265.518C94.4922 262.862 71.6144 253.7 52.3746 239.017C33.1348 224.333 18.2606 204.684 9.35104 182.181L58.875 162.573C64.2208 176.075 73.1453 187.864 84.6892 196.674C96.2331 205.484 109.96 210.982 124.394 212.575C138.828 214.169 153.423 211.798 166.611 205.719C179.798 199.639 191.08 190.08 199.242 178.07C207.404 166.059 212.139 152.051 212.937 137.551C213.735 123.052 210.566 108.609 203.771 95.775C196.976 82.9413 186.812 72.2022 174.371 64.7122C161.93 57.2222 147.683 53.2644 133.161 53.2644V0Z" fill="#FF8CC8"/>
<path d="M133.161 0C167.03 4.03885e-07 199.627 12.9058 224.316 36.0908C249.006 59.2758 263.933 90.9976 266.059 124.8C268.186 158.602 257.352 191.945 235.763 218.041C214.174 244.138 183.453 261.027 149.851 265.272L143.175 212.428C163.336 209.881 181.769 199.747 194.722 184.089C207.676 168.431 214.176 148.426 212.9 128.144C211.624 107.863 202.668 88.8299 187.854 74.9189C173.04 61.0079 153.483 53.2644 133.161 53.2644V0Z" fill="#FF70BB"/>
<path d="M133.161 0C157.009 2.84381e-07 180.419 6.40428 200.946 18.5437C221.472 30.6832 238.362 48.1123 249.851 69.0102C261.34 89.9081 267.005 113.508 266.256 137.344C265.507 161.18 258.371 184.377 245.593 204.512L200.62 175.972C208.287 163.891 212.569 149.972 213.018 135.671C213.468 121.369 210.068 107.209 203.175 94.6706C196.282 82.1318 186.148 71.6743 173.832 64.3907C161.516 57.107 147.47 53.2644 133.161 53.2644V0Z" fill="#FF39A1"/>
<path d="M133.161 0C167.03 4.03885e-07 199.627 12.9058 224.316 36.0908C249.006 59.2758 263.933 90.9976 266.059 124.8L212.9 128.144C211.624 107.863 202.668 88.8299 187.854 74.9189C173.04 61.0079 153.483 53.2644 133.161 53.2644V0Z" fill="#F40080"/>
</svg>
