<svg width="856" height="175" viewBox="0 0 856 175" fill="none" xmlns="http://www.w3.org/2000/svg">
<g clip-path="url(#clip0_122_1743)">
<mask id="mask0_122_1743" style="mask-type:luminance" maskUnits="userSpaceOnUse" x="-59" y="0" width="964" height="175">
<path d="M904.819 0H-58.1812V175H904.819V0Z" fill="white"/>
</mask>
<g mask="url(#mask0_122_1743)">
<path d="M194.933 126.501L192.822 120.156L190.135 115.965L187.449 117.768L184.762 119.75L182.075 120.111L179.388 119.57L176.701 120.831L174.015 124.616L171.328 121.192L168.641 118.669L165.954 118.79L163.267 115.425L160.581 120.111L157.894 130.384L155.207 120.471L152.52 119.57L149.833 120.831L147.146 123.625L144.46 119.932L141.773 119.39L139.087 100.646L136.4 103.53L133.713 105.331L131.026 99.9251L128.339 97.3114L125.653 95.96L122.966 97.0413L120.279 100.105L117.592 101.277L114.905 99.7448L112.218 97.5816L109.532 90.5902L106.845 74.6925L104.158 72.7103L101.471 79.7242L98.7844 73.9719L96.098 69.4658L93.411 75.5934L90.7246 102.808L88.0376 105.872L85.3506 103.619L82.6642 107.134L79.9772 105.331L77.2901 105.71L74.6038 62.0761L71.9167 58.4716L69.2303 59.7332L66.5432 62.9774L63.8565 63.5181L61.1696 63.1577L58.4829 81.9014L55.796 74.3318L53.1095 83.704L50.4228 81.7211L47.736 82.2621L45.0491 76.855L42.3624 81.3611L39.6755 79.8287L36.9888 80.6418L34.3019 79.3782L31.6152 77.9363L28.9283 75.2335L26.2416 87.3085L23.5548 89.111H20.8679L18.1812 88.5701L15.4943 86.6777L12.8078 81.0005L10.1211 72.7103L7.43423 71.989L4.74746 71.8086L2.06066 71.448L-0.626142 72.5299L-3.31294 76.855L-5.99974 61.1752L-8.68652 64.96L-11.3734 66.4019L-14.0601 65.5367L-16.747 69.4658L-19.4337 61.1752L-22.1205 35.7625L-24.8073 33.7799L-27.4941 31.7973L-30.1806 27.2915L-32.8676 28.9137L-35.5544 36.4835L-38.2411 87.6079L-40.9279 91.8145L-43.6147 89.2913L-46.3014 86.824L-48.9882 87.4888L-51.675 85.5059L-54.3618 49.4599L-57.0486 46.7567L-58.1812 41.6773" stroke="white" stroke-opacity="0.33" stroke-linecap="round" stroke-linejoin="round"/>
<path d="M194.934 126.011L197.622 123.405L200.311 125.568L203 121.278L205.689 116.827L208.378 118.719L211.068 114.213L213.757 115.115L216.445 118.721L219.134 115.655L221.823 111.329L224.512 114.393L227.201 108.626L229.89 101.597L232.578 101.057L235.269 101.381L237.957 101.597L240.646 102.138L243.334 105.041L246.025 133.498L248.713 131.876L251.401 126.83L254.09 120.522L256.781 116.016L259.469 113.852L262.157 123.946L264.846 129.984L267.537 129.533L270.225 135.661L272.914 137.463L275.601 137.282L278.293 107.365L280.981 114.213L283.669 115.655L286.357 114.934L289.046 112.951L291.737 110.698L294.425 84.1743L297.114 83.9348L299.802 82.3125L302.493 84.1151L305.181 72.9404H307.869L310.557 76.5455L313.249 80.8706L315.937 75.1036L318.625 77.8071L321.314 86.8179L324.005 86.6383L326.693 88.0795L329.381 87.5392L332.069 92.4053L334.761 96.0097L337.449 97.4516L340.137 99.4346L342.825 91.6846L345.516 110.942L348.205 113.312L350.893 116.557L353.581 121.062L356.273 115.115L358.961 130.614L361.649 126.108L364.337 120.341L367.028 109.167L369.716 108.085L372.405 106.554L375.093 91.7479L377.782 86.2776L380.473 86.8179L383.161 86.9983L385.849 86.8179L388.537 85.1963L391.229 97.272L393.916 159.85L396.605 169.005L399.293 155.442L401.984 157.147L404.673 154.263L407.361 145.122L410.049 144.891L412.74 145.251L415.429 142.548L418.117 142.188L420.805 140.926L423.496 130.837L426.184 130.653L428.873 129.932L431.561 129.031L434.252 127.769L436.941 124.705L439.629 131.374L442.317 151.885L445.008 152.515L447.696 152.786L450.384 150.443L453.073 147.83L455.764 175.134L458.452 171.17L461.141 169.549L463.829 170.54L466.517 172.43L469.208 168.104L471.897 142.861L474.584 148.28L477.273 145.036L479.964 141.815L482.652 142.873L485.341 143.413L488.029 135.664L490.72 138.187L493.408 134.763L496.097 135.024L498.785 135.304L501.476 134.042L504.164 112.864L506.852 111.693L509.541 108.629L512.232 115.923L514.92 115.658L517.609 116.74L520.297 101.6L522.988 96.7337L525.676 96.3737L528.365 92.2283L531.052 91.6873L533.744 95.6524L536.432 61.769L539.12 58.1645L541.809 60.5074L544.5 59.6064L547.188 57.6239L549.876 56.3622L552.565 75.2866L555.252 80.7242L557.944 77.9901L560.632 79.0713L563.32 75.6465L566.009 77.0884L568.7 65.9145L571.388 62.8524L574.076 63.3913L576.765 63.0306L579.456 54.5617L582.144 51.3157L584.832 36.3566L587.52 42.8447L590.211 34.1938L592.9 33.2925L595.588 41.5832L598.276 50.9551L600.968 32.9322L603.656 38.3389L606.344 35.2751L609.032 34.5541L611.724 36.1763L614.412 28.066L617.1 49.1529L619.788 35.0948L622.479 38.1589L625.168 34.0134L627.856 32.0309L630.544 33.2925L633.235 68.6179L635.924 70.5103L638.612 73.3037L641.3 75.1062L643.988 72.9437L646.679 69.3386L649.368 90.0744L652.056 94.2105L654.744 93.4899L657.435 96.0131L660.124 94.9318L662.812 96.914L665.5 92.048L668.192 83.7577L670.877 85.0194L673.565 87.7222L676.253 85.0194L678.948 84.2981L681.637 57.0832L684.325 51.8564L687.014 54.0193L689.702 50.8653L692.39 51.6761L695.079 53.6587L697.767 43.4755L700.462 44.467L703.15 40.3216L705.839 41.7996L708.521 41.9438L711.216 46.4496L713.904 59.0658L716.592 53.4784L719.281 58.7051L721.969 56.7226L724.657 55.8216L727.346 59.4261L730.034 75.4669L732.723 73.5745L735.418 74.025L738.106 72.2224L740.794 74.9259L743.483 72.0421L746.171 66.0948L748.86 67.3563L751.548 62.3097L754.236 64.0221L756.925 66.2748L759.613 63.0306L762.301 44.1064L764.99 48.2518L767.685 46.5394L770.373 46.6296L773.062 50.7751L775.75 51.4961L778.438 28.5616L781.127 26.1736L783.815 30.4595L786.503 30.0269L789.192 33.1125L791.88 34.5541L794.569 36.5367L797.257 35.4733L799.952 34.9508L802.64 35.4554L805.329 37.9786L808.017 34.1938L810.706 18.8741L813.394 12.0253L816.082 16.5311L818.771 17.6125L821.459 16.1705L824.154 13.3286L826.836 -19.5151L829.524 -8.34082L832.213 -10.6838L834.908 -12.6663L837.596 -10.5936L840.284 -10.8641L842.973 -57.3636L845.661 -54.66L848.35 -60.9681L851.038 -58.9858L853.726 -51.2358L856.421 -51.7764L859.11 -71.6017L861.798 -66.1949L864.486 -71.4213L867.175 -73.5845L869.863 -68.8981L872.552 -67.5467L875.24 -61.8694L877.928 -66.3752L880.617 -63.8519L883.305 -69.7998L885.993 -72.6836L888.689 -52.227L891.377 -87.8228L894.065 -79.2617L896.754 -68.5375L904.819 -80.5985" stroke="url(#paint0_linear_122_1743)" stroke-linecap="round" stroke-linejoin="round"/>
</g>
</g>
<defs>
<linearGradient id="paint0_linear_122_1743" x1="-371.157" y1="-353.984" x2="1005.75" y2="-795.002" gradientUnits="userSpaceOnUse">
<stop stop-color="#BC5BDB"/>
<stop offset="1" stop-color="#FA06FF"/>
</linearGradient>
<clipPath id="clip0_122_1743">
<rect width="856" height="175" fill="white"/>
</clipPath>
</defs>
</svg>
