<svg width="114" height="49" viewBox="0 0 114 49" fill="none" xmlns="http://www.w3.org/2000/svg">
<path d="M68.324 28.1749C68.134 27.9834 68.058 27.7155 68.058 27.4092V14.2405H69.16V27.4092H76.798V28.4428H69.084C68.742 28.4045 68.476 28.328 68.324 28.1749Z" fill="#73738B"/>
<path d="M86.944 24.2701H80.636L79.116 28.4045H77.9L83.258 14.2021H83.752C84.056 14.2021 84.322 14.3936 84.474 14.8146L89.566 28.3279H88.388L86.944 24.2701ZM80.94 23.3514H86.602L83.79 15.7717L80.94 23.3514Z" fill="#73738B"/>
<path d="M91.428 28.0983C91.238 27.9069 91.124 27.6389 91.124 27.3327V14.2405H96.976C98.078 14.2405 98.952 14.5084 99.674 15.0444C100.32 15.6186 100.7 16.3077 100.7 17.2647V18.4514C100.7 19.0256 100.586 19.5233 100.358 19.9827C100.13 20.442 99.788 20.7866 99.408 21.0545C100.054 21.2077 100.624 21.5522 101.042 22.0881C101.46 22.5858 101.65 23.16 101.65 23.8874V24.9592C101.65 26.0311 101.308 26.8733 100.624 27.5241C99.978 28.1749 99.066 28.4811 97.888 28.4811H92.226C91.884 28.4045 91.618 28.328 91.428 28.0983ZM97.432 20.7866C98.078 20.7866 98.61 20.5952 98.99 20.1358C99.408 19.7147 99.598 19.1022 99.598 18.3749V17.1881C99.598 16.5756 99.332 16.1163 98.876 15.7717C98.42 15.4272 97.774 15.1975 96.976 15.1975H92.264V20.7483H97.394V20.7866H97.432ZM97.736 27.4092C98.534 27.4092 99.218 27.2178 99.712 26.7584C100.206 26.2991 100.472 25.6866 100.472 24.9592V23.8874C100.472 23.2749 100.282 22.7772 99.826 22.3944C99.37 21.9733 98.8 21.8202 98.078 21.8202H92.226V27.5241H97.736V27.4092Z" fill="#73738B"/>
<path d="M104.234 27.4858C103.512 26.7585 103.17 25.8015 103.17 24.5765H104.234C104.234 25.4952 104.5 26.2226 104.994 26.7202C105.488 27.2179 106.21 27.5241 107.084 27.5241H109.326C110.2 27.5241 110.846 27.3327 111.378 26.9499C111.872 26.5288 112.138 26.0312 112.138 25.4187V24.0405C112.138 23.5429 111.948 23.0835 111.568 22.7007C111.226 22.3562 110.656 22.0882 110.01 21.9733L106.4 21.3608C105.45 21.2077 104.652 20.8632 104.158 20.289C103.588 19.7147 103.36 19.064 103.36 18.2218V17.0351C103.36 16.1163 103.702 15.3507 104.424 14.7765C105.146 14.2022 106.058 13.896 107.16 13.896H109.44C110.504 13.896 111.416 14.2022 112.1 14.853C112.784 15.5038 113.126 16.3843 113.126 17.4562H112.024C112.024 16.6905 111.758 16.0397 111.302 15.5421C110.846 15.0444 110.2 14.9296 109.44 14.9296H107.16C106.362 14.9296 105.678 15.121 105.184 15.5038C104.69 15.9249 104.462 16.3843 104.462 17.0351V18.3749C104.462 18.9491 104.652 19.3319 105.032 19.7147C105.374 20.0593 105.906 20.3272 106.552 20.4421L110.124 21.0546C111.074 21.2077 111.91 21.5522 112.48 22.1265C113.05 22.6241 113.278 23.3132 113.278 24.0788V25.4569C113.278 26.3757 112.936 27.1413 112.214 27.7155C111.492 28.2897 110.542 28.596 109.364 28.596H107.084C105.944 28.5577 104.956 28.2132 104.234 27.4858Z" fill="#73738B"/>
<path d="M21.318 14.7766C20.14 14.279 18.772 14.011 17.252 14.011H6.574V33.5344C6.574 34.4532 6.878 35.1805 7.448 35.7547C8.018 36.329 8.778 36.5586 9.69 36.5586H17.404C20.216 36.5586 22.306 35.8313 23.712 34.4149C24.168 33.9555 24.586 33.3813 24.928 32.7688L21.318 14.7766ZM21.432 27.9454C21.432 29.4766 21.09 30.6633 20.368 31.4672C19.646 32.2711 18.62 32.654 17.252 32.654H11.02V17.954H17.176C18.43 17.954 19.456 18.2985 20.292 19.0641C21.09 19.7915 21.47 20.825 21.47 22.05C21.432 22.05 21.432 27.9454 21.432 27.9454Z" fill="#73738B"/>
<path d="M64.98 17.8772V14.0491H51.87L51.832 14.3936L48.26 32.3092V36.5967H52.668V27.792H63.878V23.9639H52.668V17.8772H64.98Z" fill="#73738B"/>
<path d="M50.008 14.0109L48.184 23.1218L46.018 34.0703C45.866 34.9507 45.524 35.5632 45.068 35.9843C44.612 36.4054 44.004 36.5968 43.168 36.5968H41.344L36.556 21.0929H36.48L31.616 36.5585H29.792C29.07 36.5585 28.462 36.3671 27.968 35.9843C27.474 35.6015 27.17 34.9507 26.942 34.032L25.84 28.2898L23.408 16.0398L22.99 13.9343H27.474L30.21 29.9742H30.248L34.884 15.1593H36.442C36.936 15.1593 37.468 15.3125 37.81 15.5804C38.152 15.8484 38.532 16.346 38.722 17.1117L42.636 29.9742H42.788L45.524 13.9726C45.562 14.0109 50.008 14.0109 50.008 14.0109Z" fill="#73738B"/>
<path d="M78.66 30.8164C79.686 30.8164 80.636 31.1227 81.396 31.6969C82.004 32.118 82.422 32.6539 82.802 33.1133C83.106 33.4578 83.41 33.8789 83.752 34.1469C83.942 34.3 84.17 34.4148 84.474 34.4148C84.778 34.4148 84.968 34.3 85.196 34.1469C85.5 33.8789 85.842 33.5344 86.146 33.1133C86.564 32.6539 86.944 32.0797 87.552 31.6969C88.312 31.1227 89.3 30.8164 90.288 30.8164C91.276 30.8164 92.264 31.1227 93.024 31.6969C93.632 32.118 94.05 32.6539 94.43 33.1133C94.734 33.4578 95.038 33.8789 95.38 34.1469C95.57 34.3 95.798 34.4148 96.102 34.4148C96.406 34.4148 96.596 34.3 96.824 34.1469C97.128 33.8789 97.47 33.5344 97.774 33.1133C98.192 32.6539 98.572 32.0797 99.18 31.6969C99.94 31.1227 100.928 30.8164 101.916 30.8164C102.904 30.8164 103.892 31.1227 104.652 31.6969C105.26 32.118 105.678 32.6539 106.058 33.1133C106.362 33.4578 106.666 33.8789 107.008 34.1469C107.198 34.3 107.426 34.4148 107.73 34.4148C108.034 34.4148 108.224 34.3 108.452 34.1469C108.756 33.8789 109.098 33.5344 109.402 33.1133C109.82 32.6539 110.2 32.0797 110.808 31.6969C111.416 31.2375 112.062 30.9695 112.86 30.893V33.3047C112.556 33.5727 112.214 33.9172 111.91 34.3383C111.492 34.7977 111.112 35.3719 110.504 35.7547C109.744 36.3289 108.756 36.6352 107.768 36.6352C106.742 36.6352 105.792 36.3289 105.032 35.7547C104.424 35.3336 104.006 34.7977 103.626 34.3383C103.322 33.9937 103.018 33.5727 102.676 33.3047C102.486 33.1516 102.258 33.0367 101.954 33.0367C101.65 33.0367 101.46 33.1516 101.232 33.3047C100.928 33.5727 100.586 33.9172 100.282 34.3383C99.864 34.7977 99.484 35.3719 98.876 35.7547C98.116 36.3289 97.128 36.6352 96.14 36.6352C95.152 36.6352 94.164 36.3289 93.404 35.7547C92.796 35.3336 92.378 34.7977 91.998 34.3383C91.694 33.9937 91.39 33.5727 91.048 33.3047C90.858 33.1516 90.63 33.0367 90.326 33.0367C90.022 33.0367 89.832 33.1516 89.604 33.3047C89.3 33.5727 88.958 33.9172 88.654 34.3383C88.236 34.7977 87.856 35.3719 87.248 35.7547C86.488 36.3289 85.5 36.6352 84.512 36.6352C83.524 36.6352 82.536 36.3289 81.776 35.7547C81.168 35.3336 80.75 34.7977 80.37 34.3383C80.066 33.9937 79.762 33.5727 79.42 33.3047C79.23 33.1516 79.002 33.0367 78.698 33.0367C78.394 33.0367 78.204 33.1516 77.976 33.3047C77.672 33.5727 77.33 33.9172 77.026 34.3383C76.608 34.7977 76.228 35.3719 75.62 35.7547C74.86 36.3289 73.872 36.6352 72.884 36.6352C71.896 36.6352 70.908 36.3289 70.148 35.7547C69.54 35.3336 69.122 34.7977 68.742 34.3383C68.438 33.9937 68.134 33.5727 67.792 33.3047V30.893C68.552 31.0078 69.198 31.2375 69.844 31.6969C70.452 32.118 70.87 32.6539 71.25 33.1133C71.554 33.4578 71.858 33.8789 72.2 34.1469C72.39 34.3 72.618 34.4148 72.922 34.4148C73.226 34.4148 73.416 34.3 73.644 34.1469C73.948 33.8789 74.29 33.5344 74.594 33.1133C75.012 32.6539 75.392 32.0797 76 31.6969C76.722 31.1227 77.634 30.8164 78.66 30.8164Z" fill="#73738B"/>
</svg>
