<svg width="108" height="33" viewBox="0 0 108 33" fill="none" xmlns="http://www.w3.org/2000/svg">
<g id="Chainlink_Logo_Blue 1" clip-path="url(#clip0_122_1672)">
<g id="Layer 2">
<g id="Layer 1">
<path id="Vector" d="M36.8872 16.2935C36.856 15.5259 36.9772 14.7597 37.2437 14.0392C37.5102 13.3186 37.9168 12.658 38.4399 12.0953C38.963 11.5327 39.5924 11.0792 40.2917 10.7611C40.991 10.4429 41.7463 10.2664 42.5142 10.2417H42.7528C45.7205 10.2417 47.4721 11.9874 47.99 14.0299L46.1453 14.6467C45.9796 13.8856 45.5457 13.2094 44.923 12.7415C44.3002 12.2737 43.53 12.0453 42.7528 12.098C40.8325 12.098 38.9064 13.5004 38.9064 16.3285C38.9064 19.1565 40.7859 20.5066 42.7761 20.5066C43.5571 20.5279 44.3227 20.2866 44.9504 19.8214C45.5781 19.3562 46.0317 18.6938 46.2384 17.9403L48.0481 18.5222C47.7358 19.6716 47.0409 20.6802 46.0783 21.3816C45.1156 22.0829 43.9426 22.4352 42.7528 22.3803C41.2243 22.4083 39.7472 21.8283 38.6462 20.7677C37.5452 19.7071 36.9104 18.2526 36.8813 16.7242C36.8755 16.5845 36.8813 16.439 36.8872 16.2935Z" fill="#73738B"/>
<path id="Vector_2" d="M51.6385 22.1126H49.7299V10.2068H51.6385V14.8621C51.9156 14.5334 52.2641 14.2724 52.6574 14.0989C53.0507 13.9255 53.4784 13.8442 53.908 13.8612C55.8806 13.8612 56.8175 15.2752 56.8175 17.0384V22.1126H54.9787V17.3759C55.0338 16.9721 54.928 16.5628 54.6842 16.2363C54.4404 15.9097 54.078 15.6921 53.6752 15.6302C53.5611 15.6185 53.446 15.6185 53.3319 15.6302C52.8905 15.6302 52.4672 15.8055 52.1551 16.1176C51.843 16.4297 51.6676 16.853 51.6676 17.2944C51.6647 17.3429 51.6647 17.3915 51.6676 17.4399L51.6385 22.1126Z" fill="#73738B"/>
<path id="Vector_3" d="M61.1003 17.5271L63.1487 17.2071C63.6142 17.1489 63.7306 16.9103 63.7306 16.6252C63.7306 15.9502 63.2767 15.409 62.2176 15.409C61.8176 15.3767 61.421 15.5033 61.1138 15.7615C60.8066 16.0197 60.6136 16.3885 60.5766 16.7881V16.8754L58.8309 16.4855C58.9764 15.1006 60.2333 13.8669 62.2001 13.8669C64.6674 13.8669 65.6043 15.2635 65.6043 16.8929V20.8673C65.6023 21.2979 65.6354 21.728 65.7032 22.1533H63.9575C63.8946 21.8158 63.8692 21.4723 63.8819 21.1292C63.6169 21.537 63.2496 21.8682 62.8167 22.0897C62.3838 22.3113 61.9003 22.4155 61.4146 22.3919C60.7511 22.4467 60.093 22.2361 59.5847 21.8062C59.0763 21.3764 58.7592 20.7625 58.7029 20.0992C58.7029 20.0584 58.7029 20.0177 58.7029 19.9828C58.6738 18.5106 59.727 17.7192 61.1003 17.5271ZM63.7422 18.8132V18.4466L61.6531 18.7608C61.3696 18.7698 61.1004 18.888 60.902 19.0908C60.7035 19.2936 60.5911 19.5652 60.5883 19.849C60.5905 19.9895 60.6207 20.1283 60.6771 20.2571C60.7336 20.3859 60.8151 20.5021 60.9169 20.5991C61.0187 20.696 61.1389 20.7718 61.2703 20.8218C61.4017 20.8718 61.5417 20.8952 61.6822 20.8906H61.7695C62.0077 20.9155 62.2485 20.8931 62.478 20.8245C62.7074 20.756 62.9211 20.6428 63.1066 20.4913C63.2921 20.3399 63.4459 20.1532 63.5589 19.9421C63.672 19.731 63.7422 19.4996 63.7655 19.2612C63.7738 19.1112 63.764 18.9608 63.7364 18.8132H63.7422Z" fill="#73738B"/>
<path id="Vector_4" d="M68.8514 10.0436C69.0154 10.0413 69.1782 10.0714 69.3306 10.1323C69.4829 10.1931 69.6218 10.2834 69.7391 10.398C69.8564 10.5127 69.95 10.6493 70.0143 10.8002C70.0787 10.9511 70.1126 11.1132 70.1141 11.2773C70.1141 11.5228 70.0415 11.7629 69.9054 11.9673C69.7693 12.1716 69.5758 12.3312 69.3493 12.426C69.1228 12.5207 68.8733 12.5464 68.6322 12.4997C68.3912 12.4531 68.1692 12.3362 67.9944 12.1638C67.8196 11.9914 67.6996 11.7711 67.6496 11.5307C67.5996 11.2903 67.6218 11.0405 67.7134 10.8127C67.805 10.5849 67.9619 10.3892 68.1643 10.2503C68.3668 10.1114 68.6058 10.0354 68.8514 10.032V10.0436ZM67.9203 22.1473V14.1053H69.829V22.1124L67.9203 22.1473Z" fill="#73738B"/>
<path id="Vector_5" d="M74.1758 22.1124H72.273V14.1054H74.1293V15.1703C74.3713 14.7614 74.7188 14.4251 75.1356 14.1968C75.5523 13.9685 76.0227 13.8565 76.4976 13.8726C78.4528 13.8726 79.4072 15.2867 79.4072 17.0498V22.1124H77.5043V17.3757C77.5043 16.3923 77.0562 15.5951 75.8575 15.5951C75.6359 15.5966 75.4168 15.6417 75.2126 15.728C75.0084 15.8142 74.8233 15.9398 74.6677 16.0976C74.512 16.2553 74.389 16.4422 74.3056 16.6476C74.2222 16.8529 74.1801 17.0726 74.1816 17.2942C74.1816 17.3582 74.1816 17.4223 74.1816 17.4863L74.1758 22.1124Z" fill="#73738B"/>
<path id="Vector_6" d="M81.7115 22.1126V10.2068H83.6202V22.1126H81.7115Z" fill="#73738B"/>
<path id="Vector_7" d="M87.0243 10.0437C87.27 10.0426 87.5104 10.1144 87.7151 10.2502C87.9198 10.3859 88.0796 10.5794 88.1741 10.8062C88.2687 11.0329 88.2937 11.2826 88.2461 11.5235C88.1984 11.7645 88.0803 11.9859 87.9066 12.1596C87.7329 12.3333 87.5115 12.4515 87.2705 12.4991C87.0296 12.5467 86.7799 12.5217 86.5531 12.4272C86.3264 12.3326 86.1329 12.1729 85.9972 11.9681C85.8614 11.7634 85.7895 11.523 85.7907 11.2774C85.7937 10.9511 85.9247 10.6391 86.1554 10.4084C86.3861 10.1777 86.6981 10.0467 87.0243 10.0437ZM86.0875 22.1474V14.1054H87.9787V22.1125L86.0875 22.1474Z" fill="#73738B"/>
<path id="Vector_8" d="M92.3546 22.1126H90.446V14.1055H92.3022V15.1704C92.5447 14.7619 92.8924 14.426 93.309 14.1977C93.7256 13.9695 94.1958 13.8573 94.6706 13.8728C96.6258 13.8728 97.5802 15.2868 97.5802 17.05V22.1126H95.6715V17.3758C95.7266 16.972 95.6208 16.5628 95.377 16.2362C95.1332 15.9097 94.7708 15.692 94.368 15.6301C94.2519 15.6184 94.135 15.6184 94.0189 15.6301C93.5743 15.6347 93.1496 15.8145 92.8369 16.1305C92.5242 16.4465 92.3488 16.8731 92.3488 17.3176C92.3428 17.3854 92.3428 17.4536 92.3488 17.5213L92.3546 22.1126Z" fill="#73738B"/>
<path id="Vector_9" d="M104.092 17.4865L107.449 22.1417H105.122L102.794 18.8423L101.811 19.8781V22.1126H99.9194V10.2068H101.811V17.341L104.883 14.1056H107.414L104.092 17.4865Z" fill="#73738B"/>
<path id="Vector_10" d="M14.2917 6.9829L22.5431 11.7196V21.2396L14.3149 26.0055L6.0693 21.2804V11.7662L14.2917 6.9829ZM14.2917 0L11.2657 1.74572L3.02592 6.52901L0 8.27473V24.7835L3.02592 26.5292L11.2774 31.2659L14.3033 33.0116L17.3292 31.2659L25.5516 26.4943L28.5775 24.7485V8.21654L25.5516 6.47082L17.3059 1.74572L14.28 0H14.2917Z" fill="#73738B"/>
</g>
</g>
</g>
<defs>
<clipPath id="clip0_122_1672">
<rect width="107.449" height="33" fill="white"/>
</clipPath>
</defs>
</svg>
