<svg width="92" height="25" viewBox="0 0 92 25" fill="none" xmlns="http://www.w3.org/2000/svg">
<mask id="mask0_122_1640" style="mask-type:luminance" maskUnits="userSpaceOnUse" x="0" y="0" width="92" height="25">
<path d="M91.4415 0.175537H0.891724V24.5355H91.4415V0.175537Z" fill="white"/>
</mask>
<g mask="url(#mask0_122_1640)">
<path d="M0.891724 19.1178V3.97499C0.891724 1.89149 2.57668 0.199646 4.66442 0.175537L20.7211 0.176648C22.6523 0.227839 24.226 1.70621 24.4161 3.59066V5.21999C23.4184 5.88212 22.8184 6.24563 22.2063 6.61639C21.3777 7.11829 20.5271 7.63355 18.6384 8.92098C18.0373 9.33256 17.0167 10.3396 16.6493 10.974C15.9688 12.1551 15.2475 13.2879 14.4855 14.3724C13.499 15.7844 11.7108 16.51 9.93896 16.4872C8.77511 16.472 7.63578 16.4812 6.52093 16.5149C5.44518 16.5613 4.40242 16.8988 3.50464 17.491C2.64075 18.0457 1.77032 18.589 0.891724 19.1178Z" fill="#73738B"/>
<path d="M24.4161 6.86328V20.1915C24.2225 22.1095 22.5957 23.6069 20.6175 23.6069H4.7096C2.91379 23.6069 1.40756 22.373 1.00024 20.7105C1.18393 20.636 1.36986 20.5609 1.55696 20.4855C2.27911 20.1941 3.01894 19.8956 3.71692 19.5914C4.0296 19.4532 4.35221 19.3384 4.68206 19.2481C5.40315 19.0488 6.15488 18.9832 6.89978 19.0546C8.191 19.1912 9.50835 19.361 10.8518 19.5637C12.6482 19.8371 14.5687 18.8594 15.751 17.6295C16.2851 17.0748 16.8076 15.9148 17.3188 14.7387C17.4674 14.3791 17.7075 13.8163 17.9966 13.2062C18.0929 12.9979 18.1893 12.7978 18.2839 12.6124C18.7053 11.7729 19.1821 10.9449 19.6084 10.5366C20.6601 9.48732 24.4161 6.86328 24.4161 6.86328Z" fill="#73738B"/>
<path d="M78.5402 22.7921C79.8718 23.3353 81.3782 23.6069 83.0591 23.6069C84.7836 23.6069 86.2789 23.2918 87.545 22.6618C88.8112 22.0318 89.7717 21.1844 90.4266 20.1198C91.1033 19.0553 91.4417 17.8712 91.4417 16.5677C91.4417 15.1989 91.1033 14.0801 90.4266 13.211C89.7498 12.342 88.9422 11.6793 88.0034 11.2231C87.0867 10.7669 85.886 10.2889 84.4015 9.78922C82.9172 9.31126 81.8256 8.86588 81.1271 8.45309C80.4285 8.0403 80.0792 7.46456 80.0792 6.72587C80.0792 6.05238 80.2866 5.54182 80.7014 5.19421C81.1161 4.82486 81.662 4.64019 82.3387 4.64019C83.1246 4.64019 83.7685 4.85745 84.2706 5.29197C84.7727 5.70476 85.0455 6.2805 85.0892 7.01918H91.1469C91.0378 4.86831 90.2083 3.19542 88.6584 2.00051C87.1084 0.78386 85.0674 0.175537 82.5351 0.175537C80.0465 0.175537 78.0273 0.78386 76.4773 2.00051C74.9274 3.19542 74.1524 4.85745 74.1524 6.98659C74.1524 8.42049 74.4909 9.58283 75.1675 10.4736C75.8442 11.3643 76.652 12.0379 77.5906 12.4941C78.5294 12.9504 79.7409 13.4066 81.2253 13.8629C82.2513 14.1669 83.0372 14.4385 83.5829 14.6775C84.1505 14.9165 84.6199 15.2207 84.991 15.59C85.3839 15.9594 85.5803 16.4264 85.5803 16.9914C85.5803 17.6648 85.3403 18.1972 84.86 18.5882C84.3798 18.9575 83.7248 19.1422 82.8953 19.1422C82.0875 19.1422 81.4327 18.925 80.9306 18.4904C80.4285 18.0342 80.1339 17.3824 80.0465 16.535H74.0869C74.1306 18.0342 74.5454 19.316 75.3313 20.3806C76.139 21.4451 77.2087 22.249 78.5402 22.7921Z" fill="#73738B"/>
<path d="M33.245 11.9075C33.245 9.64801 33.7362 7.63838 34.7185 5.87858C35.7009 4.09706 37.0652 2.71747 38.8116 1.7398C40.5799 0.740417 42.5773 0.240723 44.8039 0.240723C47.5327 0.240723 49.8684 0.957676 51.8112 2.39158C53.7541 3.82548 55.053 5.78082 55.7079 8.25756H49.5519C49.0934 7.30162 48.4386 6.57381 47.5872 6.07411C46.7577 5.57442 45.808 5.32458 44.7384 5.32458C43.0139 5.32458 41.6168 5.92203 40.5471 7.11695C39.4774 8.31188 38.9426 9.90872 38.9426 11.9075C38.9426 13.9063 39.4774 15.5031 40.5471 16.6981C41.6168 17.893 43.0139 18.4904 44.7384 18.4904C45.808 18.4904 46.7577 18.2406 47.5872 17.7409C48.4386 17.2412 49.0934 16.5134 49.5519 15.5574H55.7079C55.053 18.0342 53.7541 19.9895 51.8112 21.4234C49.8684 22.8356 47.5327 23.5417 44.8039 23.5417C42.5773 23.5417 40.5799 23.0529 38.8116 22.0752C37.0652 21.0758 35.7009 19.6962 34.7185 17.9364C33.7362 16.1766 33.245 14.1669 33.245 11.9075Z" fill="#73738B"/>
<path d="M64.7361 19.0771H72.0709V23.3788H59.1367V0.501465H64.7361V19.0771Z" fill="#73738B"/>
</g>
</svg>
