<svg width="152" height="35" viewBox="0 0 152 35" fill="none" xmlns="http://www.w3.org/2000/svg">
<path d="M54.3845 21.9043C53.211 23.1398 52.0375 23.7742 50.6963 23.7742C48.1816 23.7742 46.2369 21.704 46.2369 19.0661C46.2369 16.3948 48.1481 14.3246 50.5957 14.3246C52.4063 14.3246 53.5798 15.2929 54.351 16.1277L54.4851 16.2946L55.9939 14.6919L55.8598 14.5583C54.8539 13.4898 53.3116 12.2209 50.5957 12.2209C46.874 12.2209 43.8228 15.2929 43.8228 19.0661C43.8228 22.9061 46.8069 25.9112 50.5957 25.9112C53.3451 25.9112 54.921 24.5422 55.9604 23.3735L56.0945 23.2066L54.5186 21.7374C54.5522 21.7708 54.3845 21.9043 54.3845 21.9043Z" fill="#73738B"/>
<path d="M64.1752 12.1877C62.4652 12.1877 61.0569 12.8555 60.0175 14.1911V7.07886L57.6705 8.21415V25.5775H60.0175V18.0979C60.0175 15.8941 61.4928 14.3581 63.6387 14.3581C65.7175 14.3581 66.9246 15.7271 66.9246 17.9643V25.6108H69.2716V17.4968C69.2716 14.2579 67.2934 12.1877 64.1752 12.1877Z" fill="#73738B"/>
<path d="M77.0837 12.2544C75.072 12.2544 73.5967 12.7887 72.3561 13.3563L72.1885 13.4565L72.9261 15.3931L73.1273 15.293C74.502 14.6919 75.642 14.3914 76.9161 14.3914C79.2631 14.3914 80.4702 15.4933 80.4702 17.6303V17.7305C79.4978 17.4634 78.3914 17.263 76.782 17.263C73.2279 17.263 71.1155 18.8992 71.1155 21.6373C71.1155 24.4087 73.6302 25.8445 76.1114 25.8445C78.2573 25.8445 79.5984 24.943 80.5037 24.0414V25.544H82.8172V17.5969C82.8172 15.9274 82.3478 14.6252 81.409 13.6902C80.4031 12.7553 78.8943 12.2544 77.0837 12.2544ZM80.4702 19.6672V20.6689C80.4702 22.5054 78.7602 23.8745 76.4467 23.8745C75.0049 23.8745 73.4626 23.1398 73.4626 21.5371C73.4626 20.0679 74.7702 19.1663 76.9496 19.1663C78.4584 19.1997 79.6655 19.4335 80.4702 19.6672Z" fill="#73738B"/>
<path d="M92.0043 12.1877C90.2943 12.1877 88.8861 12.8556 87.8466 14.1912V12.4883H85.4996V25.6109H87.8466V18.0979C87.8466 15.8941 89.3219 14.3582 91.4678 14.3582C93.5466 14.3582 94.7537 15.7272 94.7537 17.9644V25.6109H97.1007V17.4969C97.1342 14.258 95.089 12.1877 92.0043 12.1877Z" fill="#73738B"/>
<path d="M110.01 14.3248C108.769 12.889 107.16 12.1877 105.248 12.1877C103.673 12.1877 102.097 12.7888 100.957 13.8573C99.7161 15.026 99.0455 16.6287 99.0455 18.4319C99.0455 20.2016 99.7161 21.8377 100.957 23.0064C102.097 24.0415 103.673 24.676 105.248 24.676C107.16 24.676 108.735 23.908 110.043 22.4054V23.2735C110.043 26.0116 108.434 27.581 105.651 27.581C103.941 27.581 102.331 27.0467 100.856 26.0116L100.655 25.878L99.582 27.7479L99.7496 27.8481C101.46 29.0502 103.471 29.6512 105.684 29.6512C107.83 29.6512 109.54 29.0502 110.714 27.8815C111.82 26.7462 112.39 25.2102 112.39 23.2402V12.5217H110.043L110.01 14.3248ZM110.11 18.3651C110.11 20.9362 107.83 22.5055 105.651 22.5055C103.27 22.5055 101.46 20.7024 101.46 18.3985C101.46 16.0277 103.203 14.2914 105.651 14.2914C107.83 14.2914 110.11 15.8274 110.11 18.3651Z" fill="#73738B"/>
<path d="M120.873 12.1877C117.252 12.1877 114.536 15.1261 114.536 19.0329C114.536 22.9396 117.352 25.878 121.141 25.878C123.354 25.878 125.031 25.11 126.573 23.4071L126.707 23.2402L125.198 21.9045L125.064 22.0381C123.924 23.2402 122.717 23.741 121.208 23.741C118.962 23.741 117.285 22.2384 116.984 19.9678H127.042L127.076 19.7675C127.109 19.467 127.109 19.2666 127.109 19.0997C127.042 14.9592 124.561 12.1877 120.873 12.1877ZM124.662 18.0646H116.917C117.252 15.794 118.828 14.2246 120.839 14.2246C123.254 14.2246 124.394 16.1279 124.662 18.0646Z" fill="#73738B"/>
<path d="M129.255 25.5773H131.602V7.88013L129.255 9.04881V25.5773Z" fill="#73738B"/>
<path d="M134.653 25.5775H137V7.07886L134.653 8.24754V25.5775Z" fill="#73738B"/>
<path d="M149.406 12.4546L145.45 22.6722L140.957 12.4546H138.375L144.276 25.3435C143.505 27.1466 142.801 27.4805 141.929 27.4805C141.158 27.4805 140.655 27.3803 140.018 27.0464L139.817 26.9463L139.012 28.8496L139.18 28.9497C140.152 29.4172 140.957 29.6175 141.996 29.6175C144.075 29.6175 145.349 28.549 146.422 25.9111L151.921 12.488H149.406V12.4546Z" fill="#73738B"/>
<path d="M37.3851 0.0667809C37.251 0.0667809 33.9987 0.200346 29.9752 1.16868C24.5099 2.43754 20.4193 4.57456 17.9382 7.44619C17.3682 8.08061 16.8652 8.68165 16.3958 9.28269C15.39 9.54982 12.6741 10.2844 11.4 10.5182C10.6623 10.6517 10.0588 11.0858 9.62293 11.6868C8.71764 12.9891 7.14176 15.6604 7.07471 15.7939L5.26413 18.8659L8.54999 17.4301C9.99175 16.7957 12.0035 16.3616 12.5735 16.6955C12.607 16.7289 12.6406 16.7289 12.6741 16.8958C12.6741 17.8308 12.9088 18.7323 13.3447 19.6339C12.4394 20.3351 11.9364 21.437 12.0035 22.5723V26.5792H16.027C17.167 26.646 18.2399 26.1117 18.9776 25.2436C19.8829 25.6777 20.7882 25.878 21.727 25.9114C21.8611 25.9448 21.8946 25.9782 21.8946 26.0116C22.2299 26.5792 21.794 28.5827 21.157 30.0185L19.7152 33.2574L22.7999 31.4543C22.9005 31.3875 25.6164 29.8181 26.924 28.9166C27.5275 28.5159 27.9299 27.8815 28.0975 27.1469C28.3658 25.9114 29.1034 23.1733 29.3381 22.1716C29.9081 21.7041 30.5452 21.1699 31.1822 20.6356C37.9551 14.692 38.5587 1.76972 38.5922 1.23546L38.6592 0L37.3851 0.0667809ZM13.11 14.4583C12.3388 14.2246 11.467 14.2579 10.6288 14.3915C10.9641 13.8573 11.2659 13.3898 11.5341 12.9891C11.6012 12.8889 11.7017 12.8221 11.8694 12.7887C12.4394 12.6886 13.3447 12.4548 14.25 12.2211C13.747 13.0225 13.3782 13.7571 13.11 14.4583ZM17.0999 23.7744C16.8652 24.1083 16.4629 24.2752 16.0941 24.2418H15.7252L18.1394 20.4687L14.3506 22.9062V22.5055C14.317 22.1048 14.4847 21.7375 14.82 21.5038L19.447 17.8308C19.6817 17.6304 20.017 17.4969 20.2852 17.4301L21.5258 17.1296L21.224 18.365C21.1235 18.6989 21.0229 18.9661 20.8217 19.1998C20.7882 19.1998 17.0999 23.7744 17.0999 23.7744ZM25.784 26.7128C25.7505 26.8129 25.6834 26.9465 25.5828 27.0467C25.214 27.3138 24.7111 27.6143 24.1746 27.9482C24.3087 27.1135 24.3423 26.2453 24.1076 25.4773C24.8117 25.2102 25.5493 24.8763 26.3205 24.3754C26.1193 25.2436 25.8846 26.1117 25.784 26.7128ZM29.6399 18.9327C25.6164 22.4721 23.4034 23.5406 21.794 23.574H21.727C21.224 23.574 20.8217 23.4738 20.4193 23.3403L22.5652 20.6022C22.9676 20.068 23.2693 19.5003 23.437 18.8659L24.6105 13.9908L19.7152 15.1595C19.0782 15.2931 18.4746 15.5936 17.9717 15.9943L15.2223 18.1313C15.0882 17.7306 14.9876 17.3299 14.9876 16.829V16.7623C15.0211 15.1929 16.0941 12.9557 19.6482 8.94878C23.9399 4.10709 32.8252 2.77145 36.1445 2.47093C35.8093 5.81003 34.5016 14.6586 29.6399 18.9327Z" fill="#73738B"/>
<path d="M11.5005 32.3226C10.0252 32.6231 8.4829 32.6899 6.97408 32.7233C6.10232 32.7233 5.23056 32.6899 4.32527 32.6231C4.66056 32.0554 4.99586 31.4544 5.29762 30.8534C5.86762 29.6179 6.26997 28.349 6.57173 27.0802C6.87349 25.8447 7.20879 24.676 7.64466 23.474C8.04702 22.2719 8.51642 21.1032 9.05289 19.9011C8.58348 20.3686 8.18113 20.8695 7.81231 21.3703C7.44349 21.9046 7.04114 22.4388 6.70585 23.0065C6.03526 24.1084 5.46527 25.3438 4.96233 26.5125C4.49292 27.6812 3.98998 28.8499 3.41998 29.885C2.84998 30.9201 2.1794 31.8885 1.34117 32.8234L0 34.3928L2.07881 34.6933C3.72174 34.9271 5.36468 35.0272 7.04114 34.9938C7.87937 34.9604 8.7176 34.8937 9.55583 34.7601C10.3605 34.6599 11.2323 34.4262 12.0035 34.1925C13.6129 33.725 15.1552 32.957 16.5299 32.022C17.2005 31.5212 17.8376 30.9869 18.374 30.3525C18.9105 29.7181 19.3799 29.0502 19.7152 28.2823C18.6087 29.4509 17.2676 30.2857 15.8929 30.9535C14.4511 31.6213 12.9758 32.0554 11.5005 32.3226Z" fill="#73738B"/>
<path d="M28.8018 13.8905C29.8412 13.8905 30.9141 13.4898 31.7188 12.6884C33.3282 11.0857 33.3282 8.51455 31.7188 6.91179C30.9141 6.1438 29.9082 5.70972 28.8018 5.70972C27.6953 5.70972 26.6559 6.1438 25.8847 6.91179C24.2753 8.51455 24.2753 11.0857 25.8847 12.6884C26.6559 13.4898 27.6953 13.8905 28.8018 13.8905ZM27.4941 8.54795C27.8294 8.21404 28.2653 8.01369 28.7347 8.01369C29.2041 8.01369 29.6735 8.18065 29.9753 8.54795C30.6794 9.24916 30.6794 10.3511 29.9753 11.0523C29.2712 11.7535 28.1647 11.7535 27.4606 11.0523C26.8235 10.3845 26.8235 9.24916 27.4941 8.54795Z" fill="#73738B"/>
</svg>
