<svg width="139" height="34" viewBox="0 0 139 34" fill="none" xmlns="http://www.w3.org/2000/svg">
<path fill-rule="evenodd" clip-rule="evenodd" d="M28.4043 5.2468L28.5789 6.33759C28.7097 7.34112 28.7752 8.34465 28.7534 9.37C28.7534 11.617 28.4916 13.8422 27.968 16.0238C27.2699 18.969 26.0482 21.7832 24.3684 24.3139C22.4268 27.1935 19.6125 30.0078 15.533 32.3203L15.0312 32.6039L14.5294 32.3203C10.4499 30.0514 7.63564 27.2154 5.69403 24.3139C3.99239 21.7832 2.79252 18.9908 2.09441 16.0238C1.57083 13.8422 1.30904 11.617 1.30904 9.37C1.30904 8.36647 1.35267 7.34112 1.48357 6.33759L1.63628 5.2468C1.6581 5.15954 1.6581 5.07227 1.63628 4.98501C1.61446 4.89775 1.59265 4.81048 1.5272 4.74503C1.48357 4.67959 1.41812 4.61414 1.35267 4.57051C1.28723 4.52688 1.19996 4.50506 1.13452 4.48324C1.04725 4.46143 0.959989 4.46143 0.872726 4.48324C0.785462 4.50506 0.698199 4.54869 0.632752 4.59232C0.567304 4.63596 0.501856 4.7014 0.458224 4.76685C0.414592 4.85411 0.392776 4.94138 0.37096 5.02864L0.196435 6.11943C0.0655394 7.18841 9.15527e-05 8.2792 9.15527e-05 9.37C9.15527e-05 11.7261 0.283698 14.0604 0.829095 16.3511C1.19996 17.9 1.70173 19.4271 2.33439 20.8888C2.96705 22.3504 3.7306 23.7466 4.62505 25.0774C6.67574 28.1316 9.6427 31.1204 13.9186 33.4765L14.7258 33.9346C14.8349 33.9783 14.9439 34.0001 15.053 34.0001C15.1621 34.0001 15.2712 33.9783 15.3803 33.9346L16.1875 33.4765C20.4415 31.0986 23.4303 28.1098 25.481 25.0774C27.2699 22.4159 28.557 19.4489 29.277 16.3511C29.8224 14.0604 30.0841 11.7261 30.0841 9.37C30.0841 8.2792 30.0187 7.18841 29.8878 6.09762L29.7133 5.00683C29.6915 4.91956 29.6696 4.8323 29.626 4.74503C29.5824 4.67959 29.5169 4.61414 29.4515 4.57051C29.386 4.52688 29.2988 4.48325 29.2115 4.46143C29.1243 4.43961 29.037 4.43961 28.9497 4.46143C28.8625 4.48325 28.7752 4.50506 28.6879 4.54869C28.6225 4.59232 28.557 4.65777 28.5134 4.72322C28.4698 4.78867 28.4261 4.87593 28.4043 4.96319V5.2468Z" fill="#73738B"/>
<path fill-rule="evenodd" clip-rule="evenodd" d="M5.30129 4.50497L15.0748 1.42894L25.0446 4.57042C25.1319 4.59224 25.2192 4.59224 25.3064 4.59224C25.3937 4.59224 25.481 4.57042 25.5682 4.52679C25.6555 4.48316 25.7209 4.43953 25.7864 4.35226C25.8518 4.28682 25.8955 4.19955 25.8955 4.11229C25.9173 4.02502 25.9173 3.93776 25.9173 3.8505C25.9173 3.76323 25.8955 3.67597 25.8518 3.58871C25.8082 3.50144 25.7646 3.436 25.6991 3.37055C25.6337 3.3051 25.5464 3.26147 25.4591 3.26147L15.2711 0.0327238C15.1402 -0.0109079 15.0093 -0.0109079 14.8784 0.0327238L4.93042 3.1742C4.84316 3.19602 4.77771 3.23965 4.69045 3.28328C4.625 3.34873 4.55955 3.41418 4.53774 3.50144C4.49411 3.58871 4.47229 3.67597 4.47229 3.76323C4.47229 3.8505 4.47229 3.93776 4.49411 4.02502C4.51592 4.11229 4.55955 4.19955 4.60318 4.265C4.64682 4.33044 4.73408 4.39589 4.82134 4.43952C4.88679 4.48316 4.97406 4.50497 5.08313 4.50497C5.12677 4.52679 5.21403 4.52679 5.30129 4.50497Z" fill="#73738B"/>
<path fill-rule="evenodd" clip-rule="evenodd" d="M0.479996 5.443L14.464 33.6291C14.5076 33.7382 14.5949 33.8254 14.6821 33.8909C14.9003 34.0218 15.1621 34.0218 15.3802 33.8909C15.4893 33.8254 15.5766 33.7382 15.642 33.6291L24.172 17.1581L24.1938 17.1363L29.6478 5.42118C29.6914 5.33392 29.7132 5.24665 29.7132 5.15939C29.7132 5.07213 29.7132 4.98486 29.6696 4.8976C29.6478 4.81034 29.6042 4.72307 29.5387 4.65763C29.4951 4.59218 29.4078 4.52673 29.3424 4.4831C29.2769 4.43947 29.1897 4.41765 29.0806 4.41765C28.9933 4.41765 28.9061 4.41765 28.8188 4.43947C28.7315 4.46128 28.6443 4.50492 28.5788 4.57036C28.5134 4.63581 28.4479 4.70126 28.4261 4.78852L22.9721 16.5036L15.0312 31.8402L1.63624 4.78852C1.59261 4.72307 1.52716 4.63581 1.48353 4.57036C1.41808 4.50492 1.33081 4.46128 1.24355 4.43947C1.15629 4.39584 1.06902 4.39583 0.981761 4.41765C0.894498 4.41765 0.807235 4.43947 0.719972 4.4831C0.654524 4.52673 0.56726 4.59218 0.523629 4.65763C0.479997 4.72307 0.436365 4.81034 0.41455 4.8976C0.392734 4.98486 0.370918 5.07213 0.392734 5.15939C0.41455 5.26847 0.436364 5.35573 0.479996 5.443Z" fill="#73738B"/>
<path fill-rule="evenodd" clip-rule="evenodd" d="M7.17742 18.0089H22.7539C22.8412 18.0089 22.9285 17.9871 23.0157 17.9653C23.103 17.9435 23.1684 17.878 23.2121 17.8126C23.2775 17.7471 23.3211 17.6817 23.343 17.5944C23.4084 17.4199 23.4084 17.2454 23.343 17.0708C23.3211 16.9836 23.2557 16.9181 23.2121 16.8527C23.1466 16.7872 23.0812 16.7436 23.0157 16.7C22.9285 16.6781 22.8412 16.6563 22.7539 16.6563H7.17742C7.09016 16.6563 7.00289 16.6781 6.91563 16.7C6.82837 16.7218 6.76292 16.7872 6.71929 16.8527C6.65384 16.9181 6.61021 16.9836 6.58839 17.0708C6.52294 17.2454 6.52294 17.4199 6.58839 17.5944C6.61021 17.6817 6.65384 17.7471 6.71929 17.8126C6.78474 17.878 6.85018 17.9216 6.91563 17.9653C7.00289 17.9871 7.09016 17.9871 7.17742 18.0089ZM50.591 12.1404H40.4684C40.3811 12.1404 40.2939 12.1623 40.2066 12.1841C40.1194 12.2059 40.0539 12.2713 40.0103 12.3368C39.9448 12.4022 39.9012 12.4677 39.8794 12.5549C39.8576 12.6422 39.8358 12.7295 39.8358 12.8167V21.2158C39.8358 21.3031 39.8576 21.3904 39.8794 21.4776C39.9012 21.5649 39.9448 21.6303 40.0103 21.6958C40.0757 21.7612 40.1412 21.8049 40.2066 21.8485C40.2939 21.8703 40.3811 21.8921 40.4684 21.8921H50.591V23.3102H40.4684C40.3375 23.3102 40.2066 23.2883 40.0757 23.2665C39.9448 23.2447 39.8139 23.2011 39.683 23.1574C39.5521 23.1138 39.4431 23.0484 39.334 22.9829C39.2249 22.8957 39.1376 22.8084 39.0286 22.7211C38.8322 22.5248 38.7013 22.3066 38.5922 22.0667C38.5486 21.9358 38.505 21.8049 38.4832 21.674C38.4613 21.5431 38.4395 21.4122 38.4395 21.2813V12.8386C38.4395 12.7077 38.4613 12.5768 38.4832 12.4459C38.505 12.315 38.5486 12.1841 38.5922 12.0532C38.6359 11.9223 38.7013 11.7914 38.7668 11.6823C38.8322 11.5732 38.9195 11.4642 39.0286 11.3769C39.1158 11.2896 39.2249 11.2024 39.334 11.1151C39.4431 11.0497 39.5521 10.9842 39.683 10.9406C39.8139 10.8969 39.9448 10.8533 40.0757 10.8315C40.2066 10.8097 40.3375 10.7879 40.4684 10.7879H50.591V12.1404ZM69.5926 10.7224V12.1404H59.8409V16.3073H67.6728V17.7471H59.8409V21.9139H69.5926V23.332H58.4883V10.7224H69.5926Z" fill="#73738B"/>
<path d="M89.685 12.8605V16.5474C89.685 16.6783 89.6632 16.8092 89.6414 16.9401C89.6195 17.071 89.5759 17.2019 89.5323 17.3328C89.4887 17.4637 89.4232 17.5946 89.3578 17.7036C89.2705 17.8127 89.205 17.9218 89.096 18.0091C89.0087 18.0963 88.8996 18.1836 88.7905 18.2709C88.6815 18.3363 88.5724 18.4018 88.4415 18.4454C88.3106 18.489 88.1797 18.5326 88.0488 18.5763C87.9179 18.5981 87.787 18.6199 87.6561 18.6199H85.8018L89.6195 23.3103H87.787L83.9911 18.6199H79.5406C79.3225 18.6199 79.1043 18.5981 78.8862 18.5545V23.3103H77.5117V10.7444H87.6779C87.8088 10.7444 87.9397 10.7662 88.0706 10.788C88.2015 10.8098 88.3324 10.8535 88.4633 10.8971C88.5942 10.9407 88.7033 11.0062 88.8124 11.0934C89.0305 11.2462 89.205 11.4425 89.3578 11.6607C89.4232 11.7697 89.4887 11.9006 89.5323 12.0315C89.5759 12.1624 89.6195 12.2933 89.6414 12.4242C89.6632 12.5769 89.685 12.7296 89.685 12.8605ZM79.5188 17.2237H87.6561C87.7434 17.2237 87.8306 17.2019 87.9179 17.1801C88.0052 17.1582 88.0706 17.1146 88.1143 17.0274C88.1797 16.9619 88.2233 16.8965 88.2451 16.8092C88.267 16.7219 88.2888 16.6347 88.2888 16.5474V12.8605C88.2888 12.686 88.2233 12.5115 88.1143 12.3806C88.0052 12.2497 87.8306 12.1624 87.6561 12.1624H79.5188C79.4315 12.1624 79.3443 12.1842 79.257 12.206C79.1698 12.2279 79.1043 12.2933 79.0607 12.3588C78.9952 12.4242 78.9516 12.4897 78.9298 12.5769C78.908 12.6642 78.8862 12.7514 78.8862 12.8387V16.5256C78.8862 16.7001 78.9516 16.8746 79.1043 17.0055C79.1916 17.1364 79.3661 17.2237 79.5188 17.2237Z" fill="#73738B"/>
<path fill-rule="evenodd" clip-rule="evenodd" d="M96.9715 10.7224H109.145V12.1404H103.756V23.3102H102.382V12.1404H96.9715V10.7224ZM116.562 23.332V10.7442H117.936V23.332H116.562ZM136.24 10.7224H138.007L132.924 17.0272L138.029 23.332H136.24L131.702 17.7471H127.775V23.332H126.401V10.7442H127.797V16.3291H131.724L136.24 10.7224Z" fill="#73738B"/>
</svg>
